<svg viewBox="0 0 150 150" fill="none" xmlns="http://www.w3.org/2000/svg">
<g id="Group" opacity="0.6">
<path id="Vector" d="M1.82634 125.611C2.83826 125.611 3.65625 124.793 3.65625 123.781C3.65625 122.769 2.83826 121.951 1.82634 121.951C0.820485 121.951 -0.00360276 122.769 -0.00360276 123.781C0.00245664 124.793 0.820485 125.611 1.82634 125.611Z" fill="#EF7D00"/>
<path id="Vector_2" d="M14.0237 125.611C15.0357 125.611 15.8537 124.793 15.8476 123.781C15.8476 122.769 15.0296 121.951 14.0177 121.951C13.0058 121.951 12.1878 122.769 12.1878 123.781C12.1938 124.793 13.0179 125.611 14.0237 125.611Z" fill="#EF7D00"/>
<path id="Vector_3" d="M1.82634 137.802C2.83826 137.802 3.65625 136.984 3.65625 135.973C3.65625 134.961 2.83826 134.143 1.82634 134.143C0.820485 134.143 -0.00360276 134.961 -0.00360276 135.973C0.00245664 136.984 0.820485 137.802 1.82634 137.802Z" fill="#EF7D00"/>
<path id="Vector_4" d="M14.0238 137.802C15.0357 137.802 15.8477 136.984 15.8477 135.973C15.8477 134.961 15.0296 134.143 14.0238 134.143C13.0119 134.143 12.1939 134.961 12.1939 135.973C12.1939 136.984 13.0119 137.802 14.0238 137.802Z" fill="#EF7D00"/>
<path id="Vector_5" d="M20.1193 131.707C21.1312 131.707 21.9492 130.889 21.9492 129.877C21.9492 128.865 21.1312 128.047 20.1193 128.047C19.1135 128.047 18.2894 128.865 18.2894 129.877C18.2954 130.889 19.1135 131.707 20.1193 131.707Z" fill="#EF7D00"/>
<path id="Vector_6" d="M7.92787 131.707C8.93978 131.707 9.75781 130.889 9.75781 129.877C9.75781 128.865 8.93978 128.047 7.92787 128.047C6.92201 128.047 6.09796 128.865 6.09796 129.877C6.09796 130.889 6.91595 131.707 7.92787 131.707Z" fill="#EF7D00"/>
<path id="Vector_7" d="M7.92787 143.904C8.93978 143.904 9.75781 143.086 9.75781 142.074C9.75781 141.069 8.93978 140.244 7.92787 140.244C6.92201 140.244 6.09796 141.062 6.09796 142.074C6.09796 143.08 6.91595 143.904 7.92787 143.904Z" fill="#EF7D00"/>
<path id="Vector_8" d="M1.82634 146.34C0.820485 146.34 -0.00360276 147.158 -0.00360276 148.17C-0.00360276 149.182 0.814425 150 1.82634 150C2.83826 150 3.65625 149.182 3.65625 148.17C3.65625 147.158 2.83826 146.34 1.82634 146.34Z" fill="#EF7D00"/>
<path id="Vector_9" d="M1.82634 101.222C2.83826 101.222 3.65625 100.404 3.65625 99.3922C3.65625 98.3803 2.83826 97.5622 1.82634 97.5622C0.820485 97.5622 -0.00360276 98.3803 -0.00360276 99.3922C0.00245664 100.404 0.820485 101.222 1.82634 101.222Z" fill="#EF7D00"/>
<path id="Vector_10" d="M14.0236 101.222C15.0355 101.222 15.8475 100.404 15.8535 99.3922C15.8535 98.3803 15.0355 97.5623 14.0236 97.5623C13.0117 97.5623 12.1937 98.3803 12.1937 99.3922C12.1937 100.404 13.0177 101.222 14.0236 101.222Z" fill="#EF7D00"/>
<path id="Vector_11" d="M1.82634 113.414C2.83826 113.414 3.65625 112.596 3.65625 111.584C3.65625 110.572 2.83826 109.754 1.82634 109.754C0.820485 109.754 -0.00360276 110.572 -0.00360276 111.584C0.00245664 112.596 0.820485 113.414 1.82634 113.414Z" fill="#EF7D00"/>
<path id="Vector_12" d="M14.0238 113.414C15.0357 113.414 15.8477 112.596 15.8477 111.584C15.8477 110.572 15.0296 109.754 14.0238 109.754C13.0119 109.754 12.1939 110.572 12.1939 111.584C12.1939 112.596 13.0119 113.414 14.0238 113.414Z" fill="#EF7D00"/>
<path id="Vector_13" d="M20.1193 107.318C21.1312 107.318 21.9492 106.5 21.9492 105.494C21.9492 104.482 21.1312 103.664 20.1193 103.664C19.1135 103.664 18.2894 104.482 18.2894 105.494C18.2954 106.5 19.1135 107.318 20.1193 107.318Z" fill="#EF7D00"/>
<path id="Vector_14" d="M7.92787 107.318C8.93978 107.318 9.75781 106.5 9.75781 105.494C9.75781 104.482 8.93978 103.664 7.92787 103.664C6.92201 103.664 6.09796 104.482 6.09796 105.494C6.09796 106.5 6.91595 107.318 7.92787 107.318Z" fill="#EF7D00"/>
<path id="Vector_15" d="M20.1193 119.515C21.1312 119.515 21.9492 118.697 21.9492 117.685C21.9492 116.68 21.1312 115.855 20.1193 115.855C19.1074 115.855 18.2894 116.673 18.2894 117.685C18.2954 118.691 19.1135 119.515 20.1193 119.515Z" fill="#EF7D00"/>
<path id="Vector_16" d="M7.92787 119.515C8.93978 119.515 9.75781 118.697 9.75781 117.685C9.75781 116.68 8.93978 115.856 7.92787 115.856C6.91595 115.856 6.09796 116.674 6.09796 117.685C6.09796 118.691 6.91595 119.515 7.92787 119.515Z" fill="#EF7D00"/>
<path id="Vector_17" d="M1.82634 76.833C2.83826 76.833 3.65625 76.015 3.65625 75.0031C3.65625 73.9912 2.83826 73.1731 1.82634 73.1731C0.820485 73.1731 -0.00360276 73.9912 -0.00360276 75.0031C0.00245664 76.015 0.820485 76.833 1.82634 76.833Z" fill="#EF7D00"/>
<path id="Vector_18" d="M14.0236 76.8331C15.0355 76.8331 15.8535 76.0151 15.8535 75.0031C15.8535 73.9912 15.0355 73.1732 14.0236 73.1732C13.0117 73.1732 12.1937 73.9912 12.1937 75.0031C12.1937 76.0151 13.0177 76.8331 14.0236 76.8331Z" fill="#EF7D00"/>
<path id="Vector_19" d="M1.82634 89.0245C2.83826 89.0245 3.65625 88.2065 3.65625 87.1945C3.65625 86.1826 2.83826 85.3646 1.82634 85.3646C0.820485 85.3646 -0.00360276 86.1826 -0.00360276 87.1945C0.00245664 88.2065 0.820485 89.0245 1.82634 89.0245Z" fill="#EF7D00"/>
<path id="Vector_20" d="M14.0236 89.0247C15.0355 89.0247 15.8535 88.2066 15.8535 87.1947C15.8535 86.1828 15.0355 85.3648 14.0236 85.3648C13.0117 85.3648 12.1937 86.1828 12.1937 87.1947C12.1937 88.2066 13.0117 89.0247 14.0236 89.0247Z" fill="#EF7D00"/>
<path id="Vector_21" d="M20.1193 82.9288C21.1312 82.9288 21.9492 82.1108 21.9492 81.0988C21.9492 80.0869 21.1312 79.2689 20.1193 79.2689C19.1135 79.2689 18.2894 80.0869 18.2894 81.0988C18.2894 82.1108 19.1135 82.9288 20.1193 82.9288Z" fill="#EF7D00"/>
<path id="Vector_22" d="M7.92787 82.9288C8.93978 82.9288 9.75781 82.1108 9.75781 81.0988C9.75781 80.0869 8.93978 79.2689 7.92787 79.2689C6.92201 79.2689 6.09796 80.0869 6.09796 81.0988C6.09796 82.1108 6.91595 82.9288 7.92787 82.9288Z" fill="#EF7D00"/>
<path id="Vector_23" d="M20.1193 95.1203C21.1312 95.1203 21.9492 94.3023 21.9492 93.2904C21.9492 92.2845 21.1312 91.4604 20.1193 91.4604C19.1135 91.4604 18.2894 92.2785 18.2894 93.2904C18.2954 94.3023 19.1135 95.1203 20.1193 95.1203Z" fill="#EF7D00"/>
<path id="Vector_24" d="M7.92787 95.1203C8.93978 95.1203 9.75781 94.3023 9.75781 93.2904C9.75781 92.2845 8.93978 91.4604 7.92787 91.4604C6.92201 91.4604 6.09796 92.2785 6.09796 93.2904C6.09796 94.3023 6.91595 95.1203 7.92787 95.1203Z" fill="#EF7D00"/>
<path id="Vector_25" d="M1.82634 52.4441C2.83826 52.4441 3.65625 51.6261 3.65625 50.6142C3.65625 49.6022 2.83826 48.7842 1.82634 48.7842C0.820485 48.7842 -0.00360276 49.6022 -0.00360276 50.6142C0.00245664 51.6261 0.820485 52.4441 1.82634 52.4441Z" fill="#EF7D00"/>
<path id="Vector_26" d="M14.0236 52.444C15.0355 52.444 15.8535 51.626 15.8535 50.614C15.8535 49.6021 15.0355 48.7841 14.0236 48.7841C13.0117 48.7841 12.1937 49.6021 12.1937 50.614C12.1937 51.6199 13.0177 52.444 14.0236 52.444Z" fill="#EF7D00"/>
<path id="Vector_27" d="M1.82634 64.6356C2.83826 64.6356 3.65625 63.8175 3.65625 62.8056C3.65625 61.7937 2.83826 60.9757 1.82634 60.9757C0.820485 60.9757 -0.00360276 61.7937 -0.00360276 62.8056C0.00245664 63.8175 0.820485 64.6356 1.82634 64.6356Z" fill="#EF7D00"/>
<path id="Vector_28" d="M14.0236 64.6356C15.0355 64.6356 15.8535 63.8175 15.8535 62.8056C15.8535 61.7937 15.0355 60.9757 14.0236 60.9757C13.0117 60.9757 12.1937 61.7937 12.1937 62.8056C12.1937 63.8175 13.0117 64.6356 14.0236 64.6356Z" fill="#EF7D00"/>
<path id="Vector_29" d="M20.1193 58.54C21.1312 58.54 21.9492 57.722 21.9492 56.7101C21.9492 55.6982 21.1312 54.8802 20.1193 54.8802C19.1135 54.8802 18.2894 55.6982 18.2894 56.7101C18.2954 57.722 19.1135 58.54 20.1193 58.54Z" fill="#EF7D00"/>
<path id="Vector_30" d="M7.92787 58.5398C8.93978 58.5398 9.75781 57.7218 9.75781 56.7099C9.75781 55.6979 8.93978 54.8799 7.92787 54.8799C6.92201 54.8799 6.09796 55.6979 6.09796 56.7099C6.09796 57.7218 6.91595 58.5398 7.92787 58.5398Z" fill="#EF7D00"/>
<path id="Vector_31" d="M20.1193 70.7311C21.1312 70.7311 21.9492 69.9131 21.9492 68.9012C21.9492 67.8954 21.1312 67.0713 20.1193 67.0713C19.1135 67.0713 18.2894 67.8893 18.2894 68.9012C18.2954 69.9131 19.1135 70.7311 20.1193 70.7311Z" fill="#EF7D00"/>
<path id="Vector_32" d="M7.92787 70.7313C8.93978 70.7313 9.75781 69.9133 9.75781 68.9013C9.75781 67.8955 8.93978 67.0714 7.92787 67.0714C6.92201 67.0714 6.09796 67.8894 6.09796 68.9013C6.09796 69.9133 6.91595 70.7313 7.92787 70.7313Z" fill="#EF7D00"/>
<path id="Vector_33" d="M1.82634 28.0551C2.83826 28.0551 3.65625 27.2371 3.65625 26.2252C3.65625 25.2133 2.83826 24.3953 1.82634 24.3953C0.820485 24.3953 -0.00360276 25.2133 -0.00360276 26.2252C0.00245664 27.231 0.820485 28.0551 1.82634 28.0551Z" fill="#EF7D00"/>
<path id="Vector_34" d="M14.0236 28.0552C15.0355 28.0552 15.8535 27.2372 15.8535 26.2252C15.8535 25.2133 15.0355 24.3953 14.0236 24.3953C13.0117 24.3953 12.1937 25.2133 12.1937 26.2252C12.1937 27.2311 13.0117 28.0552 14.0236 28.0552Z" fill="#EF7D00"/>
<path id="Vector_35" d="M1.82634 40.2467C2.83826 40.2467 3.65625 39.4287 3.65625 38.4168C3.65625 37.4049 2.83826 36.5868 1.82634 36.5868C0.820485 36.5868 -0.00360276 37.4049 -0.00360276 38.4168C0.00245664 39.4287 0.820485 40.2467 1.82634 40.2467Z" fill="#EF7D00"/>
<path id="Vector_36" d="M14.0236 40.2464C15.0355 40.2464 15.8535 39.4284 15.8535 38.4165C15.8535 37.4046 15.0355 36.5865 14.0236 36.5865C13.0117 36.5865 12.1937 37.4046 12.1937 38.4165C12.1937 39.4284 13.0117 40.2464 14.0236 40.2464Z" fill="#EF7D00"/>
<path id="Vector_37" d="M20.1193 34.1508C21.1312 34.1508 21.9492 33.3328 21.9492 32.3209C21.9492 31.309 21.1312 30.491 20.1193 30.491C19.1135 30.491 18.2894 31.309 18.2894 32.3209C18.2954 33.3328 19.1135 34.1508 20.1193 34.1508Z" fill="#EF7D00"/>
<path id="Vector_38" d="M7.92787 34.1509C8.93978 34.1509 9.75781 33.3329 9.75781 32.3209C9.75781 31.309 8.93978 30.491 7.92787 30.491C6.92201 30.491 6.09796 31.309 6.09796 32.3209C6.09796 33.3329 6.91595 34.1509 7.92787 34.1509Z" fill="#EF7D00"/>
<path id="Vector_39" d="M20.1193 46.3423C21.1312 46.3423 21.9492 45.5243 21.9492 44.5124C21.9492 43.5004 21.1312 42.6824 20.1193 42.6824C19.1135 42.6824 18.2894 43.5004 18.2894 44.5124C18.2954 45.5243 19.1135 46.3423 20.1193 46.3423Z" fill="#EF7D00"/>
<path id="Vector_40" d="M7.92787 46.3423C8.93978 46.3423 9.75781 45.5243 9.75781 44.5124C9.75781 43.5065 8.93978 42.6885 7.92787 42.6824C6.92201 42.6824 6.09796 43.5004 6.09796 44.5124C6.09796 45.5243 6.91595 46.3423 7.92787 46.3423Z" fill="#EF7D00"/>
<path id="Vector_41" d="M1.82634 3.66608C2.83826 3.66608 3.65625 2.84806 3.65625 1.83614C3.65625 0.824226 2.83826 0.00621674 1.82634 0.00621674C0.820485 0.00621674 -0.00360276 0.824226 -0.00360276 1.83614C0.00245664 2.842 0.820485 3.66608 1.82634 3.66608Z" fill="#EF7D00"/>
<path id="Vector_42" d="M14.0236 3.66608C15.0355 3.66608 15.8535 2.84806 15.8535 1.83614C15.8535 0.824226 15.0355 0.00621674 14.0236 0.00621674C13.0117 0.00621674 12.1937 0.824226 12.1937 1.83614C12.1937 2.842 13.0117 3.66608 14.0236 3.66608Z" fill="#EF7D00"/>
<path id="Vector_43" d="M1.82634 15.8575C2.83826 15.8575 3.65625 15.0395 3.65625 14.0276C3.65625 13.0157 2.83826 12.1977 1.82634 12.1977C0.820485 12.1977 -0.00360276 13.0157 -0.00360276 14.0276C0.00245664 15.0395 0.820485 15.8575 1.82634 15.8575Z" fill="#EF7D00"/>
<path id="Vector_44" d="M14.0236 15.8577C15.0355 15.8577 15.8535 15.0397 15.8535 14.0277C15.8535 13.0158 15.0355 12.1978 14.0236 12.1978C13.0117 12.1978 12.1937 13.0158 12.1937 14.0277C12.1937 15.0397 13.0117 15.8577 14.0236 15.8577Z" fill="#EF7D00"/>
<path id="Vector_45" d="M20.1193 9.76178C21.1312 9.76178 21.9492 8.94376 21.9492 7.93185C21.9492 6.91993 21.1312 6.10192 20.1193 6.10192C19.1135 6.10192 18.2894 6.91993 18.2894 7.93185C18.2954 8.9377 19.1135 9.75572 20.1193 9.76178Z" fill="#EF7D00"/>
<path id="Vector_46" d="M7.92787 9.76178C8.93978 9.76178 9.75781 8.94376 9.75781 7.93185C9.75781 6.91993 8.93978 6.10192 7.92787 6.10192C6.92201 6.10192 6.09796 6.91993 6.09796 7.93185C6.09796 8.9377 6.91595 9.75572 7.92787 9.76178Z" fill="#EF7D00"/>
<path id="Vector_47" d="M20.1193 21.9533C21.1312 21.9533 21.9492 21.1353 21.9492 20.1234C21.9492 19.1115 21.1312 18.2934 20.1193 18.2934C19.1135 18.2934 18.2894 19.1115 18.2894 20.1234C18.2954 21.1353 19.1135 21.9533 20.1193 21.9533Z" fill="#EF7D00"/>
<path id="Vector_48" d="M7.92787 21.9533C8.93978 21.9533 9.75781 21.1353 9.75781 20.1234C9.75781 19.1115 8.93978 18.2934 7.92787 18.2934C6.92201 18.2934 6.09796 19.1115 6.09796 20.1234C6.09796 21.1353 6.91595 21.9533 7.92787 21.9533Z" fill="#EF7D00"/>
<path id="Vector_49" d="M26.215 125.611C26.5968 125.611 26.9482 125.496 27.2391 125.296C27.7238 124.969 28.0449 124.411 28.0449 123.781C28.0449 123.151 27.7238 122.593 27.2391 122.266C26.9482 122.066 26.5968 121.951 26.215 121.951C25.5848 121.951 25.0274 122.272 24.7002 122.757C24.5063 123.048 24.3911 123.399 24.3911 123.781C24.3911 124.163 24.5063 124.514 24.7002 124.805C25.0334 125.29 25.5909 125.611 26.215 125.611Z" fill="#EF7D00"/>
<path id="Vector_50" d="M26.215 101.222C26.5968 101.222 26.9482 101.107 27.2391 100.907C27.7299 100.58 28.0449 100.022 28.0449 99.3922C28.0449 98.762 27.7238 98.2045 27.2391 97.8773C26.9482 97.6774 26.5968 97.5622 26.215 97.5622C25.5848 97.5622 25.0274 97.8834 24.7002 98.3681C24.5063 98.659 24.3911 99.0104 24.3911 99.3922C24.3911 99.7739 24.5063 100.125 24.7002 100.416C25.0334 100.901 25.5909 101.222 26.215 101.222Z" fill="#EF7D00"/>
<path id="Vector_51" d="M38.4122 101.222C39.4242 101.222 40.2422 100.404 40.2422 99.3922C40.2422 98.3803 39.4242 97.5623 38.4122 97.5623C37.4003 97.5623 36.5823 98.3803 36.5823 99.3922C36.5823 100.404 37.4064 101.222 38.4122 101.222Z" fill="#EF7D00"/>
<path id="Vector_52" d="M26.215 113.414C26.5968 113.414 26.9482 113.298 27.2391 113.105C27.7238 112.777 28.0449 112.22 28.0449 111.59C28.0449 110.96 27.7238 110.402 27.2391 110.075C26.9482 109.881 26.5968 109.76 26.215 109.76C25.5848 109.76 25.0274 110.081 24.7002 110.566C24.5063 110.857 24.3911 111.208 24.3911 111.59C24.3911 111.971 24.5063 112.323 24.7002 112.614C25.0334 113.092 25.5909 113.414 26.215 113.414Z" fill="#EF7D00"/>
<path id="Vector_53" d="M38.4122 113.413C39.4242 113.413 40.2422 112.595 40.2422 111.583C40.2422 110.571 39.4242 109.753 38.4122 109.753C37.4003 109.753 36.5823 110.571 36.5823 111.583C36.5823 112.595 37.4064 113.413 38.4122 113.413Z" fill="#EF7D00"/>
<path id="Vector_54" d="M44.508 107.318C45.5199 107.318 46.3379 106.5 46.3379 105.494C46.3379 104.482 45.5199 103.664 44.508 103.664C43.4961 103.664 42.678 104.482 42.678 105.494C42.6841 106.5 43.5021 107.318 44.508 107.318Z" fill="#EF7D00"/>
<path id="Vector_55" d="M32.3165 107.318C33.3285 107.318 34.1465 106.5 34.1465 105.494C34.1465 104.482 33.3285 103.664 32.3165 103.664C31.3046 103.664 30.4866 104.482 30.4866 105.494C30.4866 106.5 31.3046 107.318 32.3165 107.318Z" fill="#EF7D00"/>
<path id="Vector_56" d="M32.3165 119.515C33.3224 119.515 34.1465 118.697 34.1465 117.685C34.1465 116.68 33.3285 115.856 32.3165 115.856C31.3046 115.856 30.4866 116.674 30.4866 117.685C30.4866 118.691 31.3046 119.515 32.3165 119.515Z" fill="#EF7D00"/>
<path id="Vector_57" d="M26.215 76.833C26.5968 76.833 26.9482 76.7179 27.2391 76.5179C27.7238 76.1907 28.0449 75.6333 28.0449 75.0031C28.0449 74.3729 27.7238 73.8154 27.2391 73.4882C26.9482 73.2883 26.5968 73.1731 26.215 73.1731C25.5848 73.1731 25.0274 73.4943 24.7002 73.979C24.5063 74.2699 24.3911 74.6213 24.3911 75.0031C24.3911 75.3848 24.5063 75.7363 24.7002 76.0271C25.0334 76.5119 25.5909 76.833 26.215 76.833Z" fill="#EF7D00"/>
<path id="Vector_58" d="M38.4122 76.8333C39.4242 76.8333 40.2422 76.0152 40.2422 75.0033C40.2422 73.9914 39.4242 73.1734 38.4122 73.1734C37.4003 73.1734 36.5823 73.9914 36.5823 75.0033C36.5823 76.0152 37.4064 76.8333 38.4122 76.8333Z" fill="#EF7D00"/>
<path id="Vector_59" d="M26.2208 89.0244C26.6026 89.0244 26.954 88.9093 27.2449 88.7093C27.7296 88.3821 28.0508 87.8247 28.0508 87.1884C28.0508 86.5582 27.7296 86.0008 27.2449 85.6736C26.954 85.4797 26.6026 85.3645 26.2208 85.3585C25.5907 85.3585 25.0332 85.6796 24.706 86.1644C24.5121 86.4552 24.397 86.8067 24.397 87.1884C24.397 87.5702 24.5121 87.9216 24.706 88.2125C25.0332 88.7093 25.5907 89.0244 26.2208 89.0244Z" fill="#EF7D00"/>
<path id="Vector_60" d="M38.4122 89.0244C39.4242 89.0244 40.2422 88.2064 40.2422 87.1945C40.2422 86.1826 39.4242 85.3645 38.4122 85.3645C37.4003 85.3645 36.5823 86.1826 36.5823 87.1945C36.5823 88.2064 37.4064 89.0244 38.4122 89.0244Z" fill="#EF7D00"/>
<path id="Vector_61" d="M44.508 82.9287C45.5199 82.9287 46.3379 82.1107 46.3379 81.0988C46.3379 80.0869 45.5199 79.2688 44.508 79.2688C43.4961 79.2688 42.678 80.0869 42.678 81.0988C42.678 82.1107 43.5021 82.9287 44.508 82.9287Z" fill="#EF7D00"/>
<path id="Vector_62" d="M32.3165 82.9287C33.3285 82.9287 34.1465 82.1107 34.1465 81.0988C34.1465 80.0869 33.3285 79.2688 32.3165 79.2688C31.3046 79.2688 30.4866 80.0869 30.4866 81.0988C30.4866 82.1107 31.3046 82.9287 32.3165 82.9287Z" fill="#EF7D00"/>
<path id="Vector_63" d="M44.508 95.1204C45.5199 95.1204 46.3379 94.3023 46.3379 93.2904C46.3379 92.2846 45.5199 91.4605 44.508 91.4605C43.5021 91.4605 42.678 92.2785 42.678 93.2904C42.6841 94.3023 43.5021 95.1204 44.508 95.1204Z" fill="#EF7D00"/>
<path id="Vector_64" d="M32.3165 95.1204C33.3285 95.1204 34.1465 94.3023 34.1465 93.2904C34.1465 92.2846 33.3285 91.4605 32.3165 91.4605C31.3046 91.4605 30.4866 92.2785 30.4866 93.2904C30.4866 94.3023 31.3046 95.1204 32.3165 95.1204Z" fill="#EF7D00"/>
<path id="Vector_65" d="M26.215 52.4439C26.5968 52.4439 26.9482 52.3288 27.2391 52.1288C27.7238 51.8016 28.0449 51.2441 28.0449 50.614C28.0449 49.9838 27.7238 49.4263 27.2391 49.0991C26.9482 48.8992 26.5968 48.784 26.215 48.784C25.5848 48.784 25.0274 49.1052 24.7002 49.5899C24.5063 49.8808 24.3911 50.2322 24.3911 50.614C24.3911 50.9957 24.5063 51.3472 24.7002 51.638C25.0334 52.1228 25.5909 52.4439 26.215 52.4439Z" fill="#EF7D00"/>
<path id="Vector_66" d="M38.4122 52.4441C39.4242 52.4441 40.2422 51.6261 40.2422 50.6142C40.2422 49.6022 39.4242 48.7842 38.4122 48.7842C37.4003 48.7842 36.5823 49.6022 36.5823 50.6142C36.5823 51.6261 37.4064 52.4441 38.4122 52.4441Z" fill="#EF7D00"/>
<path id="Vector_67" d="M26.2208 64.6357C26.6026 64.6357 26.954 64.5206 27.2449 64.3207C27.7357 63.9935 28.0508 63.436 28.0508 62.8058C28.0508 62.1756 27.7296 61.6182 27.2449 61.291C26.954 61.091 26.6026 60.9819 26.2208 60.9759C25.5907 60.9759 25.0332 61.297 24.706 61.7818C24.5121 62.0787 24.397 62.4301 24.397 62.8058C24.397 63.1876 24.5121 63.539 24.706 63.8298C25.0332 64.3207 25.5846 64.6357 26.2208 64.6357Z" fill="#EF7D00"/>
<path id="Vector_68" d="M38.4122 64.6357C39.4242 64.6357 40.2422 63.8177 40.2422 62.8058C40.2422 61.7939 39.4242 60.9759 38.4122 60.9759C37.4003 60.9759 36.5823 61.7939 36.5823 62.8058C36.5823 63.8177 37.4064 64.6357 38.4122 64.6357Z" fill="#EF7D00"/>
<path id="Vector_69" d="M44.508 58.5398C45.5199 58.5398 46.3379 57.7218 46.3379 56.7099C46.3379 55.6979 45.5199 54.8799 44.508 54.8799C43.4961 54.8799 42.678 55.6979 42.678 56.7099C42.6841 57.7218 43.5021 58.5398 44.508 58.5398Z" fill="#EF7D00"/>
<path id="Vector_70" d="M32.3165 58.5398C33.3285 58.5398 34.1465 57.7218 34.1465 56.7099C34.1465 55.6979 33.3285 54.8799 32.3165 54.8799C31.3046 54.8799 30.4866 55.6979 30.4866 56.7099C30.4866 57.7218 31.3046 58.5398 32.3165 58.5398Z" fill="#EF7D00"/>
<path id="Vector_71" d="M44.508 70.7312C45.5199 70.7312 46.3379 69.9132 46.3379 68.9013C46.3379 67.8954 45.5199 67.0713 44.508 67.0713C43.5021 67.0713 42.678 67.8894 42.678 68.9013C42.6841 69.9132 43.5021 70.7312 44.508 70.7312Z" fill="#EF7D00"/>
<path id="Vector_72" d="M32.3165 70.7312C33.3285 70.7312 34.1465 69.9132 34.1465 68.9013C34.1465 67.8954 33.3285 67.0713 32.3165 67.0713C31.3046 67.0713 30.4866 67.8894 30.4866 68.9013C30.4866 69.9132 31.3046 70.7312 32.3165 70.7312Z" fill="#EF7D00"/>
<path id="Vector_73" d="M26.2208 28.0549C26.6026 28.0549 26.954 27.9398 27.2449 27.7398C27.7296 27.4126 28.0508 26.8552 28.0508 26.225C28.0508 25.5948 27.7296 25.0374 27.2449 24.7041C26.954 24.5041 26.6026 24.389 26.2208 24.3951C25.5907 24.3951 25.0332 24.7162 24.706 25.201C24.5121 25.4918 24.397 25.8433 24.3909 26.225C24.3909 26.6007 24.506 26.9521 24.706 27.249C25.0332 27.7338 25.5846 28.0549 26.2208 28.0549Z" fill="#EF7D00"/>
<path id="Vector_74" d="M38.4122 28.0549C39.4242 28.0549 40.2422 27.2369 40.2422 26.225C40.2422 25.2131 39.4242 24.3951 38.4122 24.3951C37.4003 24.3951 36.5823 25.2131 36.5823 26.225C36.5823 27.2309 37.4064 28.0549 38.4122 28.0549Z" fill="#EF7D00"/>
<path id="Vector_75" d="M26.2208 40.2466C26.6026 40.2466 26.954 40.1315 27.2449 39.9376C27.7296 39.6104 28.0508 39.0529 28.0508 38.4227C28.0508 37.7925 27.7296 37.2351 27.2449 36.9079C26.954 36.7079 26.6026 36.5928 26.2208 36.5928C25.5907 36.5928 25.0332 36.9139 24.706 37.3987C24.5121 37.6895 24.3909 38.041 24.3909 38.4227C24.3909 38.8045 24.506 39.1559 24.706 39.4467C25.0332 39.9254 25.5846 40.2466 26.2208 40.2466Z" fill="#EF7D00"/>
<path id="Vector_76" d="M38.4122 40.2466C39.4242 40.2466 40.2422 39.4286 40.2422 38.4167C40.2422 37.4047 39.4242 36.5867 38.4122 36.5867C37.4003 36.5867 36.5823 37.4047 36.5823 38.4167C36.5823 39.4286 37.4064 40.2466 38.4122 40.2466Z" fill="#EF7D00"/>
<path id="Vector_77" d="M44.508 34.1509C45.5199 34.1509 46.3379 33.3329 46.3379 32.3209C46.3379 31.309 45.5199 30.491 44.508 30.491C43.4961 30.491 42.678 31.309 42.678 32.3209C42.6841 33.3329 43.5021 34.1509 44.508 34.1509Z" fill="#EF7D00"/>
<path id="Vector_78" d="M32.3165 34.1509C33.3285 34.1509 34.1465 33.3329 34.1465 32.3209C34.1465 31.309 33.3285 30.491 32.3165 30.491C31.3046 30.491 30.4866 31.309 30.4866 32.3209C30.4866 33.3329 31.3046 34.1509 32.3165 34.1509Z" fill="#EF7D00"/>
<path id="Vector_79" d="M44.508 46.342C45.5199 46.342 46.3379 45.524 46.3379 44.5121C46.3379 43.5002 45.5199 42.6822 44.508 42.6822C43.4961 42.6822 42.678 43.5002 42.678 44.5121C42.6841 45.524 43.5021 46.342 44.508 46.342Z" fill="#EF7D00"/>
<path id="Vector_80" d="M32.3165 46.3423C33.3285 46.3423 34.1465 45.5243 34.1465 44.5124C34.1465 43.5004 33.3285 42.6824 32.3165 42.6824C31.3046 42.6824 30.4866 43.5004 30.4866 44.5124C30.4866 45.5243 31.3046 46.3423 32.3165 46.3423Z" fill="#EF7D00"/>
<path id="Vector_81" d="M26.2208 3.66626C26.6026 3.66626 26.954 3.55113 27.2449 3.35117C27.7296 3.02396 28.0508 2.4665 28.0508 1.83633C28.0508 1.20615 27.7296 0.648687 27.2449 0.321481C26.954 0.121521 26.6026 0.00639985 26.2208 0.00639985C25.5907 0.00639985 25.0332 0.327539 24.706 0.812289C24.5121 1.10314 24.397 1.45458 24.3909 1.83633C24.3909 2.21807 24.506 2.56951 24.706 2.86036C25.0332 3.34511 25.5846 3.66626 26.2208 3.66626Z" fill="#EF7D00"/>
<path id="Vector_82" d="M38.4122 3.66626C39.4242 3.66626 40.2422 2.84824 40.2422 1.83633C40.2422 0.824409 39.4242 0.00639985 38.4122 0.00639985C37.4003 0.00639985 36.5823 0.824409 36.5823 1.83633C36.5823 2.84218 37.4064 3.66626 38.4122 3.66626Z" fill="#EF7D00"/>
<path id="Vector_83" d="M26.2208 15.8577C26.6026 15.8577 26.954 15.7425 27.2449 15.5486C27.7296 15.2214 28.0508 14.664 28.0508 14.0277C28.0508 13.3976 27.7296 12.8401 27.2449 12.5129C26.954 12.3129 26.6026 12.2039 26.2208 12.2039C25.5907 12.2039 25.0332 12.525 24.706 13.0098C24.5121 13.3006 24.3909 13.6521 24.397 14.0338C24.397 14.4155 24.5121 14.767 24.706 15.0578C25.0332 15.5365 25.5846 15.8577 26.2208 15.8577Z" fill="#EF7D00"/>
<path id="Vector_84" d="M38.4122 15.8574C39.4242 15.8574 40.2422 15.0394 40.2422 14.0275C40.2422 13.0156 39.4242 12.1976 38.4122 12.1976C37.4003 12.1976 36.5823 13.0156 36.5823 14.0275C36.5823 15.0394 37.4064 15.8574 38.4122 15.8574Z" fill="#EF7D00"/>
<path id="Vector_85" d="M44.508 9.75586C45.5199 9.75586 46.3379 8.93784 46.3379 7.92592C46.3379 6.91401 45.5199 6.09599 44.508 6.09599C43.4961 6.09599 42.678 6.91401 42.678 7.92592C42.6841 8.93784 43.5021 9.75586 44.508 9.75586Z" fill="#EF7D00"/>
<path id="Vector_86" d="M32.3165 9.76172C33.3285 9.76172 34.1465 8.9437 34.1465 7.93178C34.1465 6.91987 33.3285 6.10186 32.3165 6.10186C31.3046 6.10186 30.4866 6.91987 30.4866 7.93178C30.4866 8.93764 31.3046 9.75566 32.3165 9.76172Z" fill="#EF7D00"/>
<path id="Vector_87" d="M44.508 21.9534C45.5199 21.9534 46.3379 21.1354 46.3379 20.1234C46.3379 19.1115 45.5199 18.2935 44.508 18.2935C43.4961 18.2935 42.678 19.1115 42.678 20.1234C42.6841 21.1354 43.5021 21.9534 44.508 21.9534Z" fill="#EF7D00"/>
<path id="Vector_88" d="M32.3165 21.9534C33.3224 21.9534 34.1465 21.1354 34.1465 20.1234C34.1465 19.1115 33.3285 18.2935 32.3165 18.2935C31.3046 18.2935 30.4866 19.1115 30.4866 20.1234C30.4866 21.1354 31.3046 21.9534 32.3165 21.9534Z" fill="#EF7D00"/>
<path id="Vector_89" d="M50.6095 101.222C50.9912 101.222 51.3427 101.107 51.6335 100.907C52.1244 100.58 52.4395 100.022 52.4395 99.392C52.4395 98.7618 52.1183 98.2044 51.6335 97.8771C51.3427 97.6772 50.9912 97.5621 50.6095 97.5621C50.1066 97.5621 49.6461 97.7681 49.3189 98.1013C48.9856 98.4346 48.7796 98.8891 48.7857 99.392C48.7857 99.8949 48.9917 100.355 49.3189 100.689C49.6461 101.016 50.1005 101.222 50.6095 101.222Z" fill="#EF7D00"/>
<path id="Vector_90" d="M50.6095 76.8333C50.9912 76.8333 51.3427 76.7181 51.6335 76.5182C52.1183 76.191 52.4395 75.6335 52.4395 75.0033C52.4395 74.3731 52.1183 73.8157 51.6335 73.4885C51.3427 73.2885 50.9912 73.1734 50.6095 73.1794C50.1066 73.1794 49.6461 73.3855 49.3189 73.7127C48.9856 74.0459 48.7857 74.5004 48.7857 75.0033C48.7857 75.5063 48.9917 75.9668 49.3189 76.3C49.6461 76.6333 50.1005 76.8333 50.6095 76.8333Z" fill="#EF7D00"/>
<path id="Vector_91" d="M62.8009 76.8333C63.8128 76.8333 64.6309 76.0152 64.6309 75.0033C64.6309 73.9914 63.8128 73.1734 62.8009 73.1734C61.789 73.1734 60.971 73.9914 60.971 75.0033C60.971 76.0152 61.7951 76.8333 62.8009 76.8333Z" fill="#EF7D00"/>
<path id="Vector_92" d="M50.6095 89.0244C50.9912 89.0244 51.3427 88.9093 51.6335 88.7154C52.1244 88.3882 52.4395 87.8307 52.4395 87.1945C52.4395 86.5643 52.1183 86.0068 51.6335 85.6796C51.3427 85.4857 50.9912 85.3706 50.6095 85.3645C50.1066 85.3645 49.6461 85.5706 49.3189 85.8978C48.9856 86.231 48.7796 86.6855 48.7857 87.1884C48.7857 87.6913 48.9917 88.1519 49.3189 88.4851C49.6461 88.8245 50.1005 89.0244 50.6095 89.0244Z" fill="#EF7D00"/>
<path id="Vector_93" d="M62.8009 89.0244C63.8128 89.0244 64.6309 88.2064 64.6309 87.1945C64.6309 86.1826 63.8128 85.3645 62.8009 85.3645C61.789 85.3645 60.971 86.1826 60.971 87.1945C60.971 88.2064 61.7951 89.0244 62.8009 89.0244Z" fill="#EF7D00"/>
<path id="Vector_94" d="M68.9044 82.929C69.9163 82.929 70.7344 82.1109 70.7344 81.099C70.7344 80.0871 69.9163 79.2691 68.9044 79.2691C67.8986 79.2691 67.0745 80.0871 67.0745 81.099C67.0745 82.1109 67.8925 82.929 68.9044 82.929Z" fill="#EF7D00"/>
<path id="Vector_95" d="M56.7052 82.929C57.7171 82.929 58.5352 82.1109 58.5352 81.099C58.5352 80.0871 57.7171 79.2691 56.7052 79.2691C55.6933 79.2691 54.8753 80.0871 54.8753 81.099C54.8753 82.1109 55.6933 82.929 56.7052 82.929Z" fill="#EF7D00"/>
<path id="Vector_96" d="M56.7052 95.1204C57.7171 95.1204 58.5352 94.3023 58.5352 93.2904C58.5352 92.2846 57.7171 91.4605 56.7052 91.4605C55.6933 91.4605 54.8753 92.2785 54.8753 93.2904C54.8753 94.3023 55.6933 95.1204 56.7052 95.1204Z" fill="#EF7D00"/>
<path id="Vector_97" d="M50.6095 52.4441C50.9912 52.4441 51.3427 52.329 51.6335 52.129C52.1183 51.8018 52.4395 51.2443 52.4395 50.6142C52.4395 49.984 52.1183 49.4265 51.6335 49.0993C51.3427 48.8994 50.9912 48.7842 50.6095 48.7842C50.1066 48.7842 49.6461 48.9902 49.3189 49.3175C48.9856 49.6507 48.7857 50.1052 48.7796 50.6142C48.7796 51.1171 48.9856 51.5776 49.3189 51.9109C49.6461 52.2381 50.1005 52.4441 50.6095 52.4441Z" fill="#EF7D00"/>
<path id="Vector_98" d="M62.8009 52.4441C63.8128 52.4441 64.6309 51.6261 64.6309 50.6142C64.6309 49.6022 63.8128 48.7842 62.8009 48.7842C61.789 48.7842 60.971 49.6022 60.971 50.6142C60.971 51.6261 61.7951 52.4441 62.8009 52.4441Z" fill="#EF7D00"/>
<path id="Vector_99" d="M50.6095 64.6355C50.9912 64.6355 51.3427 64.5204 51.6335 64.3265C52.1183 63.9993 52.4395 63.4418 52.4395 62.8116C52.4395 62.1815 52.1183 61.624 51.6335 61.2968C51.3427 61.0968 50.9912 60.9878 50.6095 60.9817C50.1066 60.9817 49.6461 61.1877 49.3189 61.5149C48.9856 61.8482 48.7857 62.3026 48.7796 62.8116C48.7796 63.3206 48.9856 63.7751 49.3189 64.1083C49.6461 64.4295 50.1005 64.6355 50.6095 64.6355Z" fill="#EF7D00"/>
<path id="Vector_100" d="M62.8009 64.6357C63.8128 64.6357 64.6309 63.8177 64.6309 62.8058C64.6309 61.7939 63.8128 60.9759 62.8009 60.9759C61.789 60.9759 60.971 61.7939 60.971 62.8058C60.971 63.8177 61.789 64.6357 62.8009 64.6357Z" fill="#EF7D00"/>
<path id="Vector_101" d="M68.9044 58.5398C69.9163 58.5398 70.7344 57.7218 70.7344 56.7099C70.7344 55.6979 69.9163 54.8799 68.9044 54.8799C67.8986 54.8799 67.0745 55.6979 67.0745 56.7099C67.0745 57.7218 67.8925 58.5398 68.9044 58.5398Z" fill="#EF7D00"/>
<path id="Vector_102" d="M56.7052 58.5398C57.7171 58.5398 58.5352 57.7218 58.5352 56.7099C58.5352 55.6979 57.7171 54.8799 56.7052 54.8799C55.6933 54.8799 54.8753 55.6979 54.8753 56.7099C54.8753 57.7218 55.6933 58.5398 56.7052 58.5398Z" fill="#EF7D00"/>
<path id="Vector_103" d="M68.9044 70.7314C69.9163 70.7314 70.7344 69.9134 70.7344 68.9015C70.7344 67.8957 69.9163 67.0716 68.9044 67.0716C67.8986 67.0716 67.0745 67.8896 67.0745 68.9015C67.0745 69.9134 67.8925 70.7314 68.9044 70.7314Z" fill="#EF7D00"/>
<path id="Vector_104" d="M56.7052 70.7314C57.7171 70.7314 58.5352 69.9134 58.5352 68.9015C58.5352 67.8957 57.7171 67.0716 56.7052 67.0716C55.6933 67.0716 54.8753 67.8896 54.8753 68.9015C54.8753 69.9134 55.6933 70.7314 56.7052 70.7314Z" fill="#EF7D00"/>
<path id="Vector_105" d="M50.6095 28.0549C50.9912 28.0549 51.3427 27.9398 51.6335 27.7398C52.1183 27.4126 52.4395 26.8552 52.4395 26.225C52.4395 25.5948 52.1183 25.0374 51.6335 24.7041C51.3427 24.5041 50.9912 24.389 50.6095 24.3951C50.1066 24.3951 49.6461 24.6011 49.3189 24.9283C48.9856 25.2616 48.7857 25.716 48.7796 26.225C48.7796 26.7279 48.9856 27.1884 49.3189 27.5156C49.6461 27.8489 50.1005 28.0549 50.6095 28.0549Z" fill="#EF7D00"/>
<path id="Vector_106" d="M62.8009 28.0549C63.8128 28.0549 64.6309 27.2369 64.6309 26.225C64.6309 25.2131 63.8128 24.3951 62.8009 24.3951C61.789 24.3951 60.971 25.2131 60.971 26.225C60.971 27.2309 61.789 28.0549 62.8009 28.0549Z" fill="#EF7D00"/>
<path id="Vector_107" d="M50.6095 40.2466C50.9912 40.2466 51.3427 40.1315 51.6335 39.9315C52.1183 39.6043 52.4395 39.0468 52.4395 38.4167C52.4395 37.7865 52.1183 37.229 51.6335 36.9018C51.3427 36.7019 50.9912 36.5867 50.6095 36.5867C50.1066 36.5867 49.6461 36.7927 49.3189 37.12C48.9917 37.4472 48.7857 37.9077 48.7796 38.4167C48.7796 38.9196 48.9856 39.3801 49.3189 39.7134C49.6461 40.0406 50.1005 40.2466 50.6095 40.2466Z" fill="#EF7D00"/>
<path id="Vector_108" d="M62.8009 40.2466C63.8128 40.2466 64.6309 39.4286 64.6309 38.4167C64.6309 37.4047 63.8128 36.5867 62.8009 36.5867C61.789 36.5867 60.971 37.4047 60.971 38.4167C60.971 39.4286 61.789 40.2466 62.8009 40.2466Z" fill="#EF7D00"/>
<path id="Vector_109" d="M68.9044 34.1506C69.9163 34.1506 70.7344 33.3326 70.7344 32.3207C70.7344 31.3088 69.9163 30.4908 68.9044 30.4908C67.8986 30.4908 67.0745 31.3088 67.0745 32.3207C67.0745 33.3326 67.8925 34.1506 68.9044 34.1506Z" fill="#EF7D00"/>
<path id="Vector_110" d="M56.7052 34.1509C57.7171 34.1509 58.5352 33.3329 58.5352 32.3209C58.5352 31.309 57.7171 30.491 56.7052 30.491C55.6933 30.491 54.8753 31.309 54.8753 32.3209C54.8753 33.3329 55.6933 34.1509 56.7052 34.1509Z" fill="#EF7D00"/>
<path id="Vector_111" d="M68.9044 46.3423C69.9163 46.3423 70.7344 45.5243 70.7344 44.5124C70.7344 43.5065 69.9163 42.6824 68.9044 42.6824C67.8986 42.6824 67.0745 43.5004 67.0745 44.5124C67.0745 45.5243 67.8925 46.3423 68.9044 46.3423Z" fill="#EF7D00"/>
<path id="Vector_112" d="M56.7052 46.3423C57.7171 46.3423 58.5352 45.5243 58.5352 44.5124C58.5352 43.5065 57.7171 42.6824 56.7052 42.6824C55.6933 42.6824 54.8753 43.5004 54.8753 44.5124C54.8753 45.5243 55.6933 46.3423 56.7052 46.3423Z" fill="#EF7D00"/>
<path id="Vector_113" d="M50.6095 3.66626C50.9912 3.66626 51.3427 3.55113 51.6335 3.35117C52.1183 3.02396 52.4395 2.4665 52.4395 1.83633C52.4395 1.20615 52.1183 0.648687 51.6335 0.321481C51.3427 0.121521 50.9912 0.00639985 50.6095 0.00639985C50.1066 0.00639985 49.6461 0.212412 49.3189 0.539619C48.9917 0.866825 48.7857 1.32734 48.7796 1.83633C48.7796 2.33925 48.9856 2.79977 49.3189 3.12698C49.6461 3.46024 50.1005 3.66626 50.6095 3.66626Z" fill="#EF7D00"/>
<path id="Vector_114" d="M62.8029 3.66626C63.8148 3.66626 64.6328 2.84824 64.6328 1.83633C64.6328 0.824409 63.8148 0.00639985 62.8029 0.00639985C61.791 0.00639985 60.973 0.824409 60.973 1.83633C60.973 2.84218 61.791 3.66626 62.8029 3.66626Z" fill="#EF7D00"/>
<path id="Vector_115" d="M50.6095 15.8574C50.9912 15.8574 51.3427 15.7423 51.6335 15.5484C52.1183 15.2212 52.4395 14.6637 52.4395 14.0275C52.4395 13.3973 52.1183 12.8399 51.6335 12.5127C51.3427 12.3127 50.9912 12.2036 50.6095 12.2036C50.1066 12.2036 49.6461 12.4096 49.3189 12.7368C48.9856 13.0641 48.7857 13.5246 48.7857 14.0275C48.7857 14.5304 48.9917 14.9909 49.3189 15.3242C49.6461 15.6514 50.1005 15.8574 50.6095 15.8574Z" fill="#EF7D00"/>
<path id="Vector_116" d="M62.8009 15.8574C63.8128 15.8574 64.6309 15.0394 64.6309 14.0275C64.6309 13.0156 63.8128 12.1976 62.8009 12.1976C61.789 12.1976 60.971 13.0156 60.971 14.0275C60.971 15.0394 61.789 15.8574 62.8009 15.8574Z" fill="#EF7D00"/>
<path id="Vector_117" d="M68.9044 9.76196C69.9163 9.76196 70.7344 8.94394 70.7344 7.93203C70.7344 6.92011 69.9163 6.1021 68.9044 6.1021C67.8986 6.1021 67.0745 6.92011 67.0745 7.93203C67.0745 8.93788 67.8925 9.7559 68.9044 9.76196Z" fill="#EF7D00"/>
<path id="Vector_118" d="M56.7052 9.76196C57.7171 9.76196 58.5352 8.94394 58.5352 7.93203C58.5352 6.92011 57.7171 6.1021 56.7052 6.1021C55.6933 6.1021 54.8753 6.92011 54.8753 7.93203C54.8753 8.93788 55.6933 9.7559 56.7052 9.76196Z" fill="#EF7D00"/>
<path id="Vector_119" d="M68.8967 21.9534C69.9086 21.9534 70.7266 21.1354 70.7266 20.1234C70.7266 19.1115 69.9086 18.2935 68.8967 18.2935C67.8908 18.2935 67.0667 19.1115 67.0667 20.1234C67.0728 21.1354 67.8908 21.9534 68.8967 21.9534Z" fill="#EF7D00"/>
<path id="Vector_120" d="M56.7052 21.9534C57.7171 21.9534 58.5352 21.1354 58.5352 20.1234C58.5352 19.1115 57.7171 18.2935 56.7052 18.2935C55.6933 18.2935 54.8753 19.1115 54.8753 20.1234C54.8753 21.1354 55.6933 21.9534 56.7052 21.9534Z" fill="#EF7D00"/>
<path id="Vector_121" d="M74.9982 76.833C75.3739 76.833 75.7253 76.7179 76.0222 76.5179C76.507 76.1907 76.8281 75.6333 76.8281 75.0031C76.8281 74.3729 76.507 73.8154 76.0222 73.4882C75.7314 73.2883 75.3799 73.1731 74.9982 73.1792C74.4953 73.1792 74.0347 73.3852 73.7075 73.7124C73.3743 74.0457 73.1683 74.5001 73.1683 75.0031C73.1683 75.506 73.3743 75.9665 73.7075 76.2998C74.0347 76.627 74.4892 76.833 74.9982 76.833Z" fill="#EF7D00"/>
<path id="Vector_122" d="M75.0001 52.4441C75.3758 52.4441 75.7273 52.329 76.0242 52.129C76.5089 51.8018 76.8301 51.2443 76.8301 50.6142C76.8301 49.984 76.5089 49.4265 76.0242 49.0993C75.7333 48.8994 75.3819 48.7842 75.0001 48.7842C74.4972 48.7842 74.0367 48.9902 73.7095 49.3175C73.3762 49.6507 73.1702 50.1052 73.1702 50.6142C73.1702 51.1171 73.3762 51.5776 73.7095 51.9109C74.0367 52.2381 74.4911 52.4441 75.0001 52.4441Z" fill="#EF7D00"/>
<path id="Vector_123" d="M87.1916 52.4441C88.2035 52.4441 89.0215 51.6261 89.0215 50.6142C89.0215 49.6022 88.2035 48.7842 87.1916 48.7842C86.1796 48.7842 85.3616 49.6022 85.3616 50.6142C85.3616 51.62 86.1857 52.4441 87.1916 52.4441Z" fill="#EF7D00"/>
<path id="Vector_124" d="M74.9982 64.6355C75.3799 64.6355 75.7253 64.5204 76.0222 64.3265C76.507 63.9993 76.8281 63.4418 76.8281 62.8116C76.8281 62.1815 76.507 61.624 76.0222 61.2968C75.7314 61.0968 75.3799 60.9878 74.9982 60.9817C74.4953 60.9817 74.0347 61.1877 73.7075 61.5149C73.3743 61.8482 73.1683 62.3026 73.1743 62.8116C73.1743 63.3206 73.3803 63.7751 73.7075 64.1083C74.0347 64.4295 74.4953 64.6355 74.9982 64.6355Z" fill="#EF7D00"/>
<path id="Vector_125" d="M87.1916 64.6357C88.2035 64.6357 89.0215 63.8177 89.0215 62.8058C89.0215 61.7939 88.2035 60.9759 87.1916 60.9759C86.1796 60.9759 85.3616 61.7939 85.3616 62.8058C85.3616 63.8177 86.1857 64.6357 87.1916 64.6357Z" fill="#EF7D00"/>
<path id="Vector_126" d="M93.2931 58.5398C94.305 58.5398 95.123 57.7218 95.123 56.7099C95.123 55.6979 94.305 54.8799 93.2931 54.8799C92.2812 54.8799 91.4632 55.6979 91.4632 56.7099C91.4632 57.7218 92.2812 58.5398 93.2931 58.5398Z" fill="#EF7D00"/>
<path id="Vector_127" d="M81.0959 58.5398C82.1078 58.5398 82.9258 57.7218 82.9258 56.7099C82.9258 55.6979 82.1078 54.8799 81.0959 54.8799C80.0839 54.8799 79.2659 55.6979 79.2659 56.7099C79.2659 57.7218 80.0839 58.5398 81.0959 58.5398Z" fill="#EF7D00"/>
<path id="Vector_128" d="M81.0959 70.7314C82.1078 70.7314 82.9258 69.9134 82.9258 68.9015C82.9258 67.8957 82.1078 67.0716 81.0959 67.0716C80.0839 67.0716 79.2659 67.8896 79.2659 68.9015C79.2659 69.9134 80.0839 70.7314 81.0959 70.7314Z" fill="#EF7D00"/>
<path id="Vector_129" d="M75.0001 28.0549C75.3819 28.0549 75.7333 27.9398 76.0242 27.7398C76.5089 27.4126 76.8301 26.8552 76.8301 26.225C76.8301 25.5948 76.5089 25.0374 76.0242 24.7041C75.7333 24.5041 75.3819 24.389 75.0001 24.3951C74.4972 24.3951 74.0367 24.6011 73.7035 24.9283C73.3762 25.2555 73.1702 25.716 73.1702 26.2189C73.1702 26.7219 73.3762 27.1824 73.7035 27.5156C74.0367 27.8489 74.4972 28.0549 75.0001 28.0549Z" fill="#EF7D00"/>
<path id="Vector_130" d="M87.1916 28.0549C88.2035 28.0549 89.0215 27.2369 89.0215 26.225C89.0215 25.2131 88.2035 24.3951 87.1916 24.3951C86.1796 24.3951 85.3616 25.2191 85.3616 26.225C85.3616 27.2309 86.1857 28.0549 87.1916 28.0549Z" fill="#EF7D00"/>
<path id="Vector_131" d="M75.0001 40.2466C75.3819 40.2466 75.7333 40.1315 76.0242 39.9315C76.5089 39.6043 76.8301 39.0468 76.8301 38.4167C76.8301 37.7865 76.5089 37.229 76.0242 36.9018C75.7333 36.7019 75.3819 36.5867 75.0001 36.5867C74.4972 36.5867 74.0367 36.7927 73.7095 37.12C73.3762 37.4532 73.1702 37.9077 73.1702 38.4106C73.1702 38.9135 73.3762 39.374 73.7095 39.7073C74.0367 40.0406 74.4972 40.2466 75.0001 40.2466Z" fill="#EF7D00"/>
<path id="Vector_132" d="M87.1916 40.2466C88.2035 40.2466 89.0215 39.4286 89.0215 38.4167C89.0215 37.4047 88.2035 36.5867 87.1916 36.5867C86.1796 36.5867 85.3616 37.4047 85.3616 38.4167C85.3616 39.4286 86.1857 40.2466 87.1916 40.2466Z" fill="#EF7D00"/>
<path id="Vector_133" d="M93.2931 34.1506C94.305 34.1506 95.123 33.3326 95.123 32.3207C95.123 31.3088 94.305 30.4908 93.2931 30.4908C92.2812 30.4908 91.4632 31.3088 91.4632 32.3207C91.4571 33.3326 92.2812 34.1506 93.2931 34.1506Z" fill="#EF7D00"/>
<path id="Vector_134" d="M81.0959 34.1506C82.1078 34.1506 82.9258 33.3326 82.9258 32.3207C82.9258 31.3088 82.1078 30.4908 81.0959 30.4908C80.0839 30.4908 79.2659 31.3088 79.2659 32.3207C79.2659 33.3326 80.0839 34.1506 81.0959 34.1506Z" fill="#EF7D00"/>
<path id="Vector_135" d="M93.2931 46.3423C94.305 46.3423 95.123 45.5243 95.123 44.5124C95.123 43.5065 94.305 42.6885 93.2931 42.6824C92.2812 42.6824 91.4632 43.5004 91.4632 44.5124C91.4632 45.5243 92.2812 46.3423 93.2931 46.3423Z" fill="#EF7D00"/>
<path id="Vector_136" d="M81.0959 46.3423C82.1078 46.3423 82.9258 45.5243 82.9258 44.5124C82.9258 43.5065 82.1078 42.6824 81.0959 42.6824C80.0839 42.6824 79.2659 43.5004 79.2659 44.5124C79.2659 45.5243 80.0839 46.3423 81.0959 46.3423Z" fill="#EF7D00"/>
<path id="Vector_137" d="M74.9982 3.66602C75.3799 3.66602 75.7314 3.55088 76.0222 3.35093C76.507 3.02372 76.8281 2.46626 76.8281 1.83608C76.8281 1.20591 76.507 0.648443 76.0222 0.321237C75.7314 0.121277 75.3799 0.00615571 74.9982 0.00615571C74.4953 0.00615571 74.0347 0.212168 73.7075 0.539375C73.3743 0.872641 73.1743 1.32709 73.1683 1.83608C73.1683 2.33901 73.3743 2.79953 73.7015 3.12673C74.0348 3.45394 74.4892 3.66602 74.9982 3.66602Z" fill="#EF7D00"/>
<path id="Vector_138" d="M87.1916 3.65988C88.2035 3.65988 89.0215 2.84186 89.0215 1.82994C89.0215 0.818028 88.2035 9.27805e-06 87.1916 9.27805e-06C86.1796 9.27805e-06 85.3616 0.818028 85.3616 1.82994C85.3616 2.84186 86.1857 3.66594 87.1916 3.65988Z" fill="#EF7D00"/>
<path id="Vector_139" d="M75.0001 15.8577C75.3819 15.8577 75.7333 15.7425 76.0242 15.5426C76.5089 15.2154 76.8301 14.6579 76.8301 14.0277C76.8301 13.3976 76.5089 12.8401 76.0242 12.5129C75.7333 12.3129 75.3819 12.2039 75.0001 12.2039C74.4972 12.2039 74.0367 12.4099 73.7095 12.7371C73.3762 13.0643 73.1702 13.5248 73.1702 14.0277C73.1702 14.5367 73.3762 14.9912 73.7095 15.3244C74.0367 15.6517 74.4911 15.8577 75.0001 15.8577Z" fill="#EF7D00"/>
<path id="Vector_140" d="M87.1916 15.8574C88.2035 15.8574 89.0215 15.0394 89.0215 14.0275C89.0215 13.0156 88.2035 12.1976 87.1916 12.1976C86.1796 12.1976 85.3616 13.0156 85.3616 14.0275C85.3616 15.0394 86.1857 15.8574 87.1916 15.8574Z" fill="#EF7D00"/>
<path id="Vector_141" d="M93.2931 9.76196C94.305 9.76196 95.123 8.94394 95.123 7.93203C95.123 6.92011 94.305 6.1021 93.2931 6.1021C92.2812 6.1021 91.4632 6.92011 91.4632 7.93203C91.4571 8.93788 92.2812 9.76196 93.2931 9.76196Z" fill="#EF7D00"/>
<path id="Vector_142" d="M81.0959 9.76196C82.1078 9.76196 82.9258 8.94394 82.9258 7.93203C82.9258 6.92011 82.1078 6.1021 81.0959 6.1021C80.0839 6.1021 79.2659 6.92011 79.2659 7.93203C79.2659 8.93788 80.0839 9.7559 81.0959 9.76196Z" fill="#EF7D00"/>
<path id="Vector_143" d="M93.2873 21.9534C94.2992 21.9534 95.1172 21.1354 95.1172 20.1234C95.1172 19.1115 94.2992 18.2935 93.2873 18.2935C92.2753 18.2935 91.4573 19.1115 91.4573 20.1234C91.4573 21.1354 92.2814 21.9534 93.2873 21.9534Z" fill="#EF7D00"/>
<path id="Vector_144" d="M81.0959 21.9534C82.1078 21.9534 82.9258 21.1354 82.9258 20.1234C82.9258 19.1115 82.1078 18.2935 81.0959 18.2935C80.0839 18.2935 79.2659 19.1115 79.2659 20.1234C79.2659 21.1354 80.0839 21.9534 81.0959 21.9534Z" fill="#EF7D00"/>
<path id="Vector_145" d="M99.3888 52.4441C99.7706 52.4441 100.122 52.329 100.413 52.129C100.898 51.8018 101.219 51.2443 101.219 50.6142C101.219 49.984 100.898 49.4265 100.413 49.0993C100.122 48.8994 99.7706 48.7842 99.3888 48.7842C98.8859 48.7842 98.4314 48.9902 98.0982 49.3175C97.7649 49.6507 97.5589 50.1052 97.5589 50.6142C97.5589 51.1171 97.7649 51.5776 98.0982 51.9109C98.4254 52.2381 98.8798 52.4441 99.3888 52.4441Z" fill="#EF7D00"/>
<path id="Vector_146" d="M99.3888 28.0549C99.7706 28.0549 100.122 27.9398 100.413 27.7398C100.898 27.4126 101.219 26.8552 101.219 26.225C101.219 25.5948 100.898 25.0374 100.413 24.7041C100.122 24.5041 99.7706 24.3951 99.3888 24.389C98.8859 24.389 98.4254 24.595 98.0982 24.9222C97.7649 25.2555 97.5589 25.71 97.5649 26.2189C97.5649 26.7219 97.771 27.1824 98.0982 27.5156C98.4254 27.8489 98.8798 28.0549 99.3888 28.0549Z" fill="#EF7D00"/>
<path id="Vector_147" d="M111.58 28.0552C112.592 28.0552 113.41 27.2372 113.41 26.2252C113.41 25.2133 112.592 24.3953 111.58 24.3953C110.568 24.3953 109.75 25.2194 109.75 26.2252C109.75 27.2311 110.574 28.0552 111.58 28.0552Z" fill="#EF7D00"/>
<path id="Vector_148" d="M99.3888 40.2466C99.7706 40.2466 100.122 40.1315 100.413 39.9315C100.898 39.6043 101.219 39.0468 101.219 38.4167C101.219 37.7865 100.898 37.229 100.413 36.9018C100.122 36.7019 99.7706 36.5928 99.3888 36.5928C98.8859 36.5928 98.4314 36.7988 98.0982 37.126C97.7649 37.4593 97.5589 37.9137 97.5589 38.4227C97.5589 38.9256 97.7649 39.3862 98.0982 39.7134C98.4254 40.0406 98.8798 40.2466 99.3888 40.2466Z" fill="#EF7D00"/>
<path id="Vector_149" d="M111.58 40.2466C112.592 40.2466 113.41 39.4286 113.41 38.4167C113.41 37.4047 112.592 36.5867 111.58 36.5867C110.568 36.5867 109.75 37.4047 109.75 38.4167C109.75 39.4286 110.574 40.2466 111.58 40.2466Z" fill="#EF7D00"/>
<path id="Vector_150" d="M117.682 34.1509C118.694 34.1509 119.512 33.3329 119.512 32.3209C119.512 31.309 118.694 30.491 117.682 30.491C116.67 30.491 115.852 31.309 115.852 32.3209C115.852 33.3329 116.67 34.1509 117.682 34.1509Z" fill="#EF7D00"/>
<path id="Vector_151" d="M105.485 34.1506C106.496 34.1506 107.314 33.3326 107.314 32.3207C107.314 31.3088 106.496 30.4908 105.485 30.4908C104.479 30.4908 103.655 31.3088 103.655 32.3207C103.655 33.3326 104.479 34.1506 105.485 34.1506Z" fill="#EF7D00"/>
<path id="Vector_152" d="M105.485 46.3423C106.496 46.3423 107.314 45.5243 107.314 44.5124C107.314 43.5065 106.496 42.6824 105.485 42.6824C104.479 42.6824 103.655 43.5004 103.655 44.5124C103.655 45.5243 104.479 46.3423 105.485 46.3423Z" fill="#EF7D00"/>
<path id="Vector_153" d="M99.3888 3.66003C99.7706 3.66003 100.122 3.5449 100.413 3.351C100.898 3.02379 101.219 2.46633 101.219 1.83615C101.219 1.20598 100.898 0.648513 100.413 0.321307C100.122 0.121347 99.7706 0.0062258 99.3888 0.0062258C98.8859 0.0062258 98.4254 0.212238 98.0982 0.539445C97.7649 0.872711 97.5589 1.32716 97.5589 1.83615C97.5589 2.33908 97.7649 2.7996 98.0921 3.1268C98.4254 3.45401 98.8798 3.66609 99.3888 3.66003Z" fill="#EF7D00"/>
<path id="Vector_154" d="M111.58 3.66012C112.592 3.66012 113.41 2.8421 113.41 1.83624C113.41 0.824329 112.592 0.00631926 111.58 0.00631926C110.568 0.00631926 109.75 0.824329 109.75 1.83624C109.75 2.8421 110.574 3.66618 111.58 3.66012Z" fill="#EF7D00"/>
<path id="Vector_155" d="M99.3888 15.8577C99.7706 15.8577 100.122 15.7425 100.413 15.5426C100.898 15.2154 101.219 14.6579 101.219 14.0277C101.219 13.3976 100.898 12.8401 100.413 12.5129C100.122 12.319 99.7706 12.2039 99.3888 12.2039C98.8859 12.2039 98.4314 12.4099 98.0982 12.7371C97.7649 13.0704 97.5589 13.5248 97.5589 14.0277C97.5589 14.5307 97.7649 14.9912 98.0982 15.3244C98.4254 15.6517 98.8798 15.8577 99.3888 15.8577Z" fill="#EF7D00"/>
<path id="Vector_156" d="M111.58 15.8574C112.592 15.8574 113.41 15.0394 113.41 14.0275C113.41 13.0156 112.592 12.1976 111.58 12.1976C110.568 12.1976 109.75 13.0156 109.75 14.0275C109.75 15.0394 110.574 15.8574 111.58 15.8574Z" fill="#EF7D00"/>
<path id="Vector_157" d="M117.682 9.76172C118.694 9.76172 119.512 8.9437 119.512 7.93178C119.512 6.91987 118.694 6.10186 117.682 6.10186C116.67 6.10186 115.852 6.91987 115.852 7.93178C115.852 8.93764 116.67 9.76172 117.682 9.76172Z" fill="#EF7D00"/>
<path id="Vector_158" d="M105.485 9.75562C106.496 9.75562 107.314 8.9376 107.314 7.92568C107.314 6.91376 106.496 6.09575 105.485 6.09575C104.479 6.09575 103.655 6.91376 103.655 7.92568C103.655 8.9376 104.479 9.75562 105.485 9.75562Z" fill="#EF7D00"/>
<path id="Vector_159" d="M117.682 21.9534C118.694 21.9534 119.512 21.1354 119.512 20.1234C119.512 19.1115 118.694 18.2935 117.682 18.2935C116.67 18.2935 115.852 19.1115 115.852 20.1234C115.852 21.1354 116.67 21.9534 117.682 21.9534Z" fill="#EF7D00"/>
<path id="Vector_160" d="M105.485 21.9531C106.496 21.9531 107.314 21.1351 107.314 20.1232C107.314 19.1113 106.496 18.2933 105.485 18.2933C104.479 18.2933 103.655 19.1113 103.655 20.1232C103.655 21.1351 104.473 21.9531 105.485 21.9531Z" fill="#EF7D00"/>
<path id="Vector_161" d="M123.777 28.0551C124.789 28.0551 125.607 27.237 125.607 26.2251C125.607 25.2132 124.789 24.3952 123.777 24.3952C122.893 24.3952 122.154 25.0254 121.984 25.8555C121.96 25.9767 121.948 26.0979 121.948 26.2251C121.948 26.3524 121.96 26.4736 121.984 26.5947C122.154 27.4249 122.893 28.0551 123.777 28.0551Z" fill="#EF7D00"/>
<path id="Vector_162" d="M123.777 3.66003C124.789 3.66003 125.607 2.84202 125.607 1.8301C125.607 0.818183 124.789 0.00016425 123.777 0.00016425C122.893 0.00016425 122.16 0.630342 121.984 1.46048C121.96 1.57561 121.948 1.70285 121.948 1.8301C121.948 1.95735 121.96 2.07853 121.984 2.19972C122.154 3.03592 122.893 3.66003 123.777 3.66003Z" fill="#EF7D00"/>
<path id="Vector_163" d="M135.969 3.6601C136.981 3.6601 137.799 2.84208 137.799 1.83016C137.799 0.818244 136.981 0.000225285 135.969 0.000225285C134.957 0.000225285 134.139 0.818244 134.139 1.83016C134.139 2.84208 134.963 3.6601 135.969 3.6601Z" fill="#EF7D00"/>
<path id="Vector_164" d="M123.777 15.8576C124.789 15.8576 125.607 15.0396 125.607 14.0277C125.607 13.0158 124.789 12.1977 123.777 12.1977C122.893 12.1977 122.16 12.8219 121.984 13.6581C121.96 13.7792 121.948 13.9004 121.948 14.0277C121.948 14.1549 121.96 14.2761 121.984 14.3973C122.154 15.2335 122.893 15.8576 123.777 15.8576Z" fill="#EF7D00"/>
<path id="Vector_165" d="M135.969 15.8575C136.981 15.8575 137.799 15.0395 137.799 14.0276C137.799 13.0156 136.981 12.1976 135.969 12.1976C134.957 12.1976 134.139 13.0156 134.139 14.0276C134.139 15.0395 134.963 15.8575 135.969 15.8575Z" fill="#EF7D00"/>
<path id="Vector_166" d="M142.07 9.76172C143.082 9.76172 143.9 8.9437 143.9 7.93178C143.9 6.91987 143.082 6.10186 142.07 6.10186C141.059 6.10186 140.241 6.91987 140.241 7.93178C140.241 8.93764 141.059 9.76172 142.07 9.76172Z" fill="#EF7D00"/>
<path id="Vector_167" d="M129.873 9.75568C130.885 9.75568 131.703 8.93766 131.703 7.92574C131.703 6.91383 130.885 6.09581 129.873 6.09581C128.867 6.09581 128.043 6.91383 128.043 7.92574C128.043 8.93766 128.867 9.75568 129.873 9.75568Z" fill="#EF7D00"/>
<path id="Vector_168" d="M129.873 21.9534C130.885 21.9534 131.703 21.1354 131.703 20.1295C131.703 19.1176 130.885 18.2996 129.873 18.2996C128.867 18.2996 128.043 19.1176 128.043 20.1295C128.043 21.1354 128.861 21.9534 129.873 21.9534Z" fill="#EF7D00"/>
<path id="Vector_169" d="M148.166 3.66614C148.548 3.66614 148.899 3.55101 149.19 3.35105C149.675 3.02384 149.996 2.46638 149.996 1.8362C149.996 1.20603 149.675 0.648565 149.19 0.321359C148.899 0.121399 148.542 0.00627778 148.166 0.00627778C147.154 0.00627778 146.336 0.824287 146.336 1.8362C146.336 2.84206 147.154 3.66614 148.166 3.66614Z" fill="#EF7D00"/>
</g>
</svg>
