<svg width="40" height="40" viewBox="0 0 40 40" fill="none" xmlns="http://www.w3.org/2000/svg">
<g id="Linear / Network, IT, Programming / Code Circle">
<path id="Vector" d="M20 36.6666C29.2048 36.6666 36.6667 29.2047 36.6667 20C36.6667 10.7952 29.2048 3.33331 20 3.33331C10.7953 3.33331 3.33337 10.7952 3.33337 20C3.33337 29.2047 10.7953 36.6666 20 36.6666Z" stroke="white" strokeLinecap="4"/>
<path id="Vector_2" d="M25.8334 15L26.1193 15.286C28.3416 17.5082 29.4527 18.6193 29.4527 20C29.4527 21.3807 28.3416 22.4918 26.1193 24.714L25.8334 25" stroke="white" strokeLinecap="4" strokeLinecap="round"/>
<path id="Vector_3" d="M22.1569 11.9506L20 20L17.8432 28.0494" stroke="white" strokeLinecap="4" strokeLinecap="round"/>
<path id="Vector_4" d="M14.1667 15L13.8807 15.286C11.6585 17.5082 10.5474 18.6193 10.5474 20C10.5474 21.3807 11.6585 22.4918 13.8807 24.714L14.1667 25" stroke="white" strokeLinecap="4" strokeLinecap="round"/>
</g>
</svg>
