<?xml version="1.0" encoding="utf-8"?>
<!-- Generator: Adobe Illustrator 28.0.0, SVG Export Plug-In . SVG Version: 6.00 Build 0)  -->
<svg version="1.1" id="Layer_1" xmlns="http://www.w3.org/2000/svg" xmlns:xlink="http://www.w3.org/1999/xlink" x="0px" y="0px"
	 viewBox="0 0 650 650" style="enable-background:new 0 0 650 650;" xml:space="preserve">
<style type="text/css">
	.st0{fill-rule:evenodd;clip-rule:evenodd;fill:#EE7D00;}
	.st1{fill-rule:evenodd;clip-rule:evenodd;fill:#0D0802;}
	.st2{fill:#0D0802;}
	.st3{fill-rule:evenodd;clip-rule:evenodd;fill:#161410;stroke:#FFFFFF;strokeWidth:0.15;stroke-miterlimit:10;}
	.st4{fill:#EE7D00;}
	.st5{fill-rule:evenodd;clip-rule:evenodd;fill:#0D0802;stroke:#FFFFFF;strokeWidth:0.15;stroke-miterlimit:10;}
	.st6{fill-rule:evenodd;clip-rule:evenodd;fill:#ED7203;}
	.st7{fill:none;stroke:#1D1D1B;stroke-miterlimit:10;}
</style>
<path class="st0" d="M257.74,263.2V432c0,14.85-11.92,26.89-26.61,26.89c-14.7,0-26.61-12.04-26.61-26.89V263.2
	c0-23.32-18.71-42.23-41.79-42.23c-23.07,0-41.79,18.91-41.79,42.23V432c0,14.85-11.92,26.89-26.61,26.89
	c-14.7,0-26.61-12.04-26.61-26.89V263.2c0-37.88,21.7-70.63,53.22-86.25c12.61-6.26,26.79-9.77,41.79-9.77
	c15,0,29.19,3.51,41.79,9.77C236.05,192.57,257.74,225.32,257.74,263.2z"/>
<g>
	<g>
		<path class="st1" d="M388.01,546.97c0.55,0,1.04,0.1,1.54,0.35c0.46,0.22,0.87,0.54,1.25,0.92c0.35,0.38,0.64,0.86,0.84,1.4
			c0.2,0.51,0.32,1.08,0.32,1.72c0,0.57-0.12,1.11-0.32,1.62c-0.2,0.54-0.49,0.99-0.84,1.37c-0.38,0.38-0.78,0.7-1.25,0.92
			c-0.49,0.22-0.99,0.35-1.54,0.35c-0.52,0-1.04-0.13-1.5-0.35c-0.49-0.22-0.9-0.54-1.28-0.92c-0.35-0.38-0.64-0.83-0.84-1.37
			c-0.2-0.51-0.29-1.05-0.29-1.62c0-0.64,0.09-1.21,0.29-1.72c0.2-0.54,0.49-1.02,0.84-1.4c0.38-0.38,0.78-0.7,1.28-0.92
			C386.96,547.07,387.48,546.97,388.01,546.97L388.01,546.97z M219.99,564.61v-6.11h10.37h0.49h2.96c-0.06-0.48-0.09-0.99-0.12-1.5
			c0-0.54,0-1.02,0-1.43c0-1.49,0.23-2.93,0.69-4.27c0.44-1.37,1.07-2.61,1.85-3.69c0.78-1.11,1.68-2.01,2.69-2.74
			c1.04-0.73,2.09-1.24,3.22-1.47c0.46-0.06,0.99-0.16,1.54-0.19c0.55-0.03,1.13-0.07,1.77-0.07c1.01,0,2.09,0.1,3.21,0.29
			c1.1,0.16,2.2,0.48,3.3,0.92c1.07,0.48,2.11,1.11,3.1,1.91c1.01,0.8,1.89,1.82,2.64,3.09c0.78,1.27,1.39,2.77,1.88,4.52
			c0.49,1.78,0.75,3.85,0.81,6.24l0.03,4.43l-29.58,0.06l0,0h-0.49H219.99z M74.25,559.17c0-1.18,0.26-2.36,0.75-3.56
			c0.47-1.18,1.13-2.26,1.97-3.25c0.84-0.95,1.8-1.75,2.93-2.32c1.13-0.6,2.32-0.89,3.56-0.86c1.13,0,2.23,0.03,3.33,0.03
			c1.1,0.03,2.23,0.03,3.33,0.06c0.38,0,0.72,0.09,1.07,0.25c0.35,0.16,0.64,0.38,0.9,0.64c0.26,0.28,0.46,0.6,0.58,0.99
			c0.15,0.35,0.23,0.76,0.23,1.18v15.35c0,0.41-0.09,0.83-0.23,1.18c-0.11,0.38-0.32,0.7-0.58,0.99c-0.26,0.29-0.55,0.51-0.9,0.67
			c-0.35,0.16-0.69,0.22-1.07,0.22H76.83c-0.52,0-1.01,0.03-1.45,0.1c-0.43,0.07-0.78,0.19-1.1,0.42c-0.32,0.19-0.55,0.51-0.7,0.92
			c-0.17,0.38-0.26,0.89-0.26,1.56v8.79h-5.59v-8.79c0-1.34,0.17-2.52,0.49-3.57c0.35-1.02,0.78-1.88,1.36-2.61
			c0.58-0.73,1.28-1.31,2.06-1.75c0.81-0.48,1.68-0.8,2.61-0.99V559.17z M104.73,573.02v-24.48c-0.81,0.6-1.65,1.24-2.55,1.94
			c-0.9,0.7-1.71,1.31-2.46,1.88l-1.82-4.74l6.66-6.11h6.23v31.52H104.73z M138.33,552.67c0,1.88-0.29,3.79-0.87,5.73
			c-0.58,1.94-1.36,3.85-2.4,5.7c-1.04,1.81-2.29,3.57-3.76,5.22c-1.48,1.62-3.13,3.09-4.93,4.33c-0.64-0.96-1.25-1.78-1.77-2.48
			c-0.52-0.7-0.93-1.21-1.13-1.53c3.33-2.42,5.65-5.03,7.01-7.86c-0.35,0.1-0.72,0.16-1.1,0.22c-0.38,0.07-0.75,0.1-1.13,0.1
			c-1.13,0-2.23-0.22-3.33-0.67c-1.07-0.44-2.06-1.11-2.93-1.97c-0.87-0.89-1.59-1.98-2.12-3.25c-0.55-1.27-0.81-2.74-0.81-4.39
			c0-1.56,0.23-3,0.72-4.3c0.46-1.3,1.13-2.42,1.97-3.37c0.84-0.92,1.85-1.66,3.04-2.17c1.16-0.54,2.46-0.8,3.85-0.8
			c1.57,0,2.93,0.29,4.14,0.86c1.19,0.57,2.2,1.37,3.04,2.39c0.81,1.02,1.42,2.23,1.86,3.63
			C138.13,549.46,138.33,550.99,138.33,552.67L138.33,552.67z M128.13,547.04c-0.64,0-1.19,0.13-1.68,0.45
			c-0.49,0.29-0.9,0.64-1.22,1.08c-0.35,0.45-0.58,0.92-0.72,1.43c-0.14,0.54-0.2,1.02-0.17,1.47c0.06,0.7,0.26,1.37,0.58,1.94
			c0.32,0.57,0.72,1.08,1.22,1.5c0.49,0.41,1.04,0.73,1.65,0.96c0.61,0.22,1.21,0.35,1.85,0.35c0.99,0,1.91-0.32,2.78-0.92
			c0.06-0.32,0.15-0.67,0.17-1.02c0.03-0.38,0.06-0.73,0.06-1.11c0-0.8-0.12-1.56-0.32-2.32c-0.2-0.73-0.49-1.37-0.87-1.94
			c-0.38-0.57-0.87-1.02-1.42-1.37C129.49,547.2,128.86,547.04,128.13,547.04L128.13,547.04z M161.3,552.67
			c0,1.88-0.29,3.79-0.87,5.73c-0.58,1.94-1.36,3.85-2.4,5.7c-1.04,1.81-2.29,3.57-3.77,5.22c-1.48,1.62-3.13,3.09-4.93,4.33
			c-0.64-0.96-1.25-1.78-1.77-2.48c-0.55-0.7-0.93-1.21-1.16-1.53c3.36-2.42,5.68-5.03,7.01-7.86c-0.35,0.1-0.69,0.16-1.07,0.22
			c-0.4,0.07-0.75,0.1-1.13,0.1c-1.13,0-2.23-0.22-3.33-0.67c-1.1-0.44-2.06-1.11-2.95-1.97c-0.87-0.89-1.56-1.98-2.09-3.25
			c-0.55-1.27-0.81-2.74-0.81-4.39c0-1.56,0.23-3,0.7-4.3c0.49-1.3,1.16-2.42,2-3.37c0.84-0.92,1.85-1.66,3.04-2.17
			c1.16-0.54,2.46-0.8,3.85-0.8c1.56,0,2.93,0.29,4.14,0.86c1.19,0.57,2.2,1.37,3.04,2.39c0.81,1.02,1.42,2.23,1.85,3.63
			C161.07,549.46,161.3,550.99,161.3,552.67L161.3,552.67z M151.11,547.04c-0.64,0-1.19,0.13-1.68,0.45
			c-0.49,0.29-0.9,0.64-1.21,1.08c-0.35,0.45-0.58,0.92-0.73,1.43c-0.15,0.54-0.2,1.02-0.18,1.47c0.06,0.7,0.23,1.37,0.58,1.94
			c0.32,0.57,0.72,1.08,1.21,1.5c0.49,0.41,1.02,0.73,1.62,0.96c0.61,0.22,1.25,0.35,1.88,0.35c0.98,0,1.91-0.32,2.78-0.92
			c0.06-0.32,0.12-0.67,0.17-1.02c0.03-0.38,0.06-0.73,0.06-1.11c0-0.8-0.11-1.56-0.32-2.32c-0.2-0.73-0.49-1.37-0.87-1.94
			c-0.41-0.57-0.87-1.02-1.42-1.37C152.47,547.2,151.83,547.04,151.11,547.04L151.11,547.04z M166.28,542.58
			c0.87-0.51,1.88-0.92,3.04-1.21c1.16-0.29,2.32-0.41,3.5-0.45c1.22,0,2.38,0.13,3.54,0.41c1.16,0.32,2.2,0.76,3.1,1.4
			c0.93,0.64,1.65,1.46,2.2,2.45c0.55,1.02,0.84,2.2,0.84,3.63c0,1.4-0.41,2.74-1.16,4.05c-0.78,1.27-1.97,2.39-3.53,3.28
			c1.88,0.96,3.25,2.1,4.14,3.47c0.9,1.34,1.33,2.96,1.33,4.87c0,1.62-0.29,2.99-0.9,4.17c-0.61,1.18-1.42,2.1-2.4,2.86
			c-1.01,0.73-2.14,1.24-3.42,1.59c-1.24,0.35-2.55,0.51-3.88,0.48c-1.33,0-2.63-0.19-3.91-0.54c-1.28-0.38-2.43-0.86-3.42-1.53
			l1.3-4.52c0.58,0.45,1.21,0.79,1.97,1.02c0.75,0.25,1.54,0.38,2.32,0.41c0.81,0.03,1.59-0.03,2.35-0.19
			c0.78-0.13,1.45-0.38,2.06-0.73c0.61-0.32,1.1-0.77,1.48-1.24c0.38-0.51,0.55-1.12,0.55-1.78c0-0.6-0.17-1.21-0.49-1.81
			c-0.35-0.57-0.84-1.11-1.53-1.62c-0.67-0.48-1.51-0.86-2.52-1.18c-1.01-0.32-2.17-0.48-3.53-0.48l-0.23-4.65
			c0.7-0.1,1.45-0.29,2.32-0.54c0.84-0.26,1.65-0.61,2.41-1.02c0.75-0.41,1.42-0.96,1.94-1.53c0.55-0.57,0.81-1.27,0.87-2.04
			c-0.06-0.73-0.26-1.34-0.55-1.85c-0.32-0.48-0.73-0.86-1.22-1.18c-0.46-0.28-1.01-0.48-1.62-0.57c-0.61-0.06-1.22-0.1-1.83-0.03
			c-0.64,0.06-1.24,0.19-1.85,0.38c-0.58,0.19-1.13,0.45-1.59,0.73L166.28,542.58z M197.19,556.11h11.21v5.83h-11.21V556.11z
			 M278.59,573.02v-24.48c-0.81,0.6-1.65,1.24-2.55,1.94c-0.9,0.7-1.71,1.31-2.46,1.88l-1.82-4.74l6.66-6.11h6.23v31.52H278.59z
			 M304.03,573.02v-7.16h-11.99v-5.83l13.82-18.88h3.88v18.56h2.75v6.15h-2.75v7.16H304.03z M304.03,559.71l0.09-8.75l-6.58,8.75
			H304.03z M324.54,573.02v-24.48c-0.81,0.6-1.65,1.24-2.55,1.94c-0.9,0.7-1.74,1.31-2.46,1.88l-1.83-4.74l6.66-6.11h6.23v31.52
			H324.54z M349.94,573.02v-7.16h-12v-5.83l13.82-18.88h3.91v18.56h2.75v6.15h-2.75v7.16H349.94z M349.94,559.71l0.12-8.75
			l-6.58,8.75H349.94z M79.87,564.58h7.44v-9.24c-1.01,0-1.79,0-2.31-0.03c-0.52,0-0.9,0-1.13,0c-0.23,0-0.38,0-0.41,0
			c-0.03,0-0.03,0-0.03,0c-0.46,0-0.9,0.1-1.33,0.32c-0.44,0.19-0.81,0.48-1.13,0.86c-0.35,0.35-0.61,0.8-0.78,1.27
			c-0.2,0.48-0.32,0.99-0.32,1.53V564.58z M245.11,552.29c0-0.76-0.12-1.4-0.41-1.91c-0.26-0.48-0.58-0.8-0.99-0.92
			c-0.46-0.03-0.96,0.06-1.39,0.29c-0.47,0.26-0.9,0.64-1.28,1.09c-0.41,0.47-0.75,1.02-1.01,1.62c-0.29,0.64-0.52,1.31-0.67,2.01
			v-0.03c0,0.16-0.03,0.29-0.03,0.45c0,0.16-0.03,0.32-0.03,0.45c0,0.35,0.06,0.73,0.12,1.08c0.06,0.35,0.17,0.67,0.32,0.99
			c0.14,0.29,0.35,0.51,0.61,0.7c0.26,0.19,0.55,0.29,0.9,0.29c0.49-0.06,0.95-0.29,1.42-0.67c0.46-0.38,0.87-0.86,1.25-1.4
			c0.35-0.57,0.63-1.18,0.87-1.88C244.99,553.72,245.11,553.03,245.11,552.29L245.11,552.29z M254.78,558.44
			c-0.09-1.15-0.23-2.13-0.49-2.99c-0.23-0.86-0.55-1.59-0.93-2.23c-0.37-0.64-0.78-1.15-1.24-1.56c-0.46-0.44-0.99-0.8-1.51-1.05
			c0.03,0.25,0.06,0.54,0.06,0.83c0.03,0.29,0.03,0.57,0.03,0.83c0,1.11-0.12,2.16-0.35,3.21c-0.23,1.05-0.58,2.04-1.04,2.96H254.78
			z M554.31,563.34h5.94v-14.61h5.59v17.41c0,0.06,0,0.1,0,0.16c0,0.03,0,0.09,0,0.13c0,0.42-0.09,0.83-0.23,1.21
			c-0.15,0.35-0.35,0.67-0.58,0.95c-0.26,0.29-0.55,0.51-0.9,0.67c-0.35,0.16-0.7,0.22-1.1,0.22h-8.72h-0.23h-6.87
			c-0.4,0-0.75-0.07-1.1-0.22c-0.35-0.16-0.64-0.38-0.9-0.67c-0.26-0.28-0.44-0.6-0.61-0.95c-0.14-0.38-0.2-0.8-0.2-1.21
			c0-0.03,0-0.06-0.03-0.09c0-0.03,0-0.1,0.03-0.19v-26.71h5.56v23.91h4.12H554.31z M561.44,542.01c0-0.45,0.09-0.89,0.23-1.28
			c0.15-0.41,0.35-0.76,0.64-1.05c0.26-0.29,0.58-0.54,0.96-0.7c0.35-0.16,0.72-0.26,1.13-0.26c0.44,0,0.81,0.1,1.19,0.26
			c0.35,0.16,0.67,0.41,0.93,0.7c0.29,0.29,0.49,0.64,0.67,1.05c0.14,0.38,0.23,0.83,0.23,1.28c0,0.45-0.09,0.89-0.23,1.27
			c-0.17,0.38-0.38,0.73-0.67,1.05c-0.26,0.29-0.58,0.51-0.93,0.7c-0.37,0.16-0.75,0.26-1.19,0.26c-0.41,0-0.78-0.09-1.13-0.26
			c-0.38-0.19-0.69-0.41-0.96-0.7c-0.29-0.32-0.49-0.67-0.64-1.05C561.53,542.9,561.44,542.45,561.44,542.01L561.44,542.01z
			 M554.69,542.01c0-0.45,0.09-0.89,0.23-1.28c0.14-0.41,0.37-0.76,0.64-1.05c0.29-0.29,0.58-0.54,0.96-0.7
			c0.35-0.16,0.72-0.26,1.13-0.26c0.43,0,0.84,0.1,1.19,0.26c0.35,0.16,0.67,0.41,0.96,0.7c0.26,0.29,0.49,0.64,0.64,1.05
			c0.15,0.38,0.23,0.83,0.23,1.28c0,0.45-0.08,0.89-0.23,1.27c-0.14,0.38-0.38,0.73-0.64,1.05c-0.29,0.29-0.61,0.51-0.96,0.7
			c-0.35,0.16-0.75,0.26-1.19,0.26c-0.4,0-0.78-0.09-1.13-0.26c-0.38-0.19-0.67-0.41-0.96-0.7c-0.26-0.32-0.49-0.67-0.64-1.05
			C554.78,542.9,554.69,542.45,554.69,542.01L554.69,542.01z M544.61,535.03c-0.06-0.19-0.12-0.38-0.14-0.57
			c-0.03-0.19-0.03-0.38-0.03-0.61c0-0.42,0.06-0.8,0.17-1.18c0.12-0.41,0.32-0.73,0.55-1.05c0.23-0.32,0.52-0.54,0.87-0.73
			c0.35-0.19,0.75-0.28,1.21-0.28h2.49v2.1l-2.49-0.03c-0.4,0-0.69,0.13-0.87,0.38c-0.2,0.25-0.29,0.54-0.29,0.83
			c0,0.25,0.08,0.51,0.26,0.77c0.17,0.22,0.43,0.35,0.78,0.38h2.84v2.07h-6.2v-2.07H544.61z M511.85,563.34h4.23v-14.61h5.65v14.61
			h4.03v-14.61h5.56v14.61h4.03v-14.61h5.59v17.7c0,0.42-0.09,0.83-0.23,1.21c-0.14,0.35-0.35,0.67-0.58,0.95
			c-0.26,0.29-0.55,0.51-0.9,0.67c-0.35,0.16-0.7,0.22-1.07,0.22h-26.3h-0.4h-22.36c-0.2,1.37-0.61,2.55-1.22,3.57
			c-0.61,1.02-1.36,1.85-2.23,2.55c-0.9,0.67-1.86,1.18-2.93,1.49c-1.07,0.35-2.14,0.51-3.25,0.51c-1.24,0-2.43-0.22-3.62-0.64
			c-1.16-0.44-2.2-1.08-3.13-1.94c-0.93-0.86-1.65-1.94-2.2-3.18c-0.58-1.27-0.84-2.74-0.84-4.43v-9.36h5.59v9.36
			c0,0.7,0.12,1.31,0.35,1.81c0.23,0.51,0.55,0.92,0.93,1.24c0.41,0.35,0.84,0.57,1.36,0.77c0.49,0.16,1.01,0.22,1.56,0.22
			c0.52,0,1.04-0.06,1.57-0.22c0.52-0.19,0.96-0.42,1.33-0.77c0.41-0.32,0.72-0.73,0.96-1.24c0.23-0.51,0.35-1.08,0.35-1.78v-18.72
			h5.62v14.61h4.03v-14.61h5.59v14.61h3.99v-14.61h5.59v14.61h2.95H511.85z M439.19,563.34c-0.2-0.25-0.38-0.57-0.55-0.96
			c-0.18-0.35-0.32-0.73-0.46-1.14c-0.15-0.41-0.23-0.83-0.32-1.27c-0.09-0.41-0.12-0.83-0.12-1.21c0-1.4,0.23-2.74,0.69-4.01
			c0.46-1.3,1.1-2.45,1.97-3.47c0.87-0.99,1.91-1.82,3.1-2.42c1.22-0.64,2.55-0.92,4.03-0.92h8.46v6.15h-8.46
			c-0.61,0-1.16,0.13-1.68,0.41c-0.52,0.25-0.96,0.6-1.33,1.05c-0.38,0.45-0.67,0.95-0.87,1.5c-0.2,0.57-0.32,1.15-0.32,1.69
			c0,0.57,0.12,1.14,0.32,1.72c0.2,0.54,0.49,1.05,0.87,1.46c0.38,0.45,0.81,0.8,1.33,1.05c0.52,0.26,1.07,0.38,1.68,0.38h9.13v6.15
			h-21.73h-0.38h-6.72c-0.41,0-0.75-0.07-1.1-0.22c-0.35-0.16-0.64-0.38-0.9-0.67c-0.26-0.28-0.46-0.6-0.61-0.95
			c-0.14-0.38-0.23-0.8-0.23-1.21c0-0.03,0-0.06,0-0.09c0-0.03,0-0.1,0-0.19V539.4h5.59v23.94h3.97h0.38H439.19z M402.87,557.93
			c0-1.14,0.26-2.36,0.75-3.53c0.46-1.21,1.13-2.29,1.97-3.25c0.84-0.99,1.8-1.75,2.92-2.35c1.13-0.61,2.32-0.89,3.56-0.86
			c1.13,0,2.23,0.03,3.33,0.07c1.1,0,2.23,0.03,3.33,0.03c0.38,0,0.72,0.1,1.07,0.26c0.35,0.16,0.64,0.38,0.9,0.67
			c0.26,0.26,0.46,0.57,0.58,0.96c0.14,0.38,0.23,0.76,0.23,1.18v15.34c0,0.42-0.09,0.83-0.23,1.21c-0.12,0.35-0.32,0.67-0.58,0.95
			c-0.26,0.29-0.55,0.51-0.9,0.67c-0.35,0.16-0.69,0.22-1.07,0.22h-13.3c-0.52,0-1.01,0.03-1.45,0.09c-0.44,0.06-0.78,0.19-1.1,0.41
			c-0.32,0.22-0.55,0.51-0.7,0.92c-0.17,0.38-0.26,0.92-0.26,1.59v8.76h-5.59v-8.79c0-1.34,0.17-2.52,0.49-3.57
			c0.35-1.02,0.78-1.88,1.36-2.61c0.58-0.73,1.27-1.31,2.06-1.75c0.78-0.48,1.65-0.79,2.61-0.99V557.93z M408.49,563.34h7.44v-9.23
			c-1.01,0-1.8,0-2.32,0c-0.52-0.03-0.9-0.03-1.13-0.03c-0.26,0-0.37,0-0.41,0c-0.03,0-0.03,0-0.03,0c-0.47,0-0.9,0.1-1.33,0.32
			c-0.44,0.22-0.81,0.51-1.13,0.86c-0.35,0.35-0.61,0.8-0.81,1.27c-0.17,0.48-0.29,0.99-0.29,1.53V563.34z M388.01,559.3
			c0.55,0,1.04,0.1,1.54,0.32c0.46,0.22,0.87,0.54,1.25,0.96c0.35,0.38,0.64,0.83,0.84,1.37c0.2,0.51,0.32,1.05,0.32,1.66
			c0,0.6-0.12,1.15-0.32,1.69c-0.2,0.51-0.49,0.99-0.84,1.37c-0.38,0.38-0.78,0.7-1.25,0.92c-0.49,0.22-0.99,0.35-1.54,0.35
			c-0.52,0-1.04-0.13-1.5-0.35c-0.49-0.22-0.9-0.54-1.28-0.92c-0.35-0.38-0.64-0.86-0.84-1.37c-0.2-0.54-0.29-1.09-0.29-1.69
			c0-0.6,0.09-1.15,0.29-1.66c0.2-0.54,0.49-0.99,0.84-1.37c0.38-0.42,0.78-0.73,1.28-0.96C386.96,559.39,387.48,559.3,388.01,559.3
			L388.01,559.3z"/>
	</g>
	<g>
		<path class="st2" d="M101.54,519.15H84.95l-2.31,7.97H67.72l17.78-48.25h15.94l17.77,48.25h-15.3L101.54,519.15z M98.51,508.72
			l-5.22-17.34l-5.17,17.34H98.51z"/>
		<path class="st2" d="M124.06,478.87h21.71c4.28,0,7.74,0.59,10.37,1.78c2.63,1.18,4.81,2.88,6.53,5.1
			c1.72,2.22,2.97,4.79,3.74,7.73c0.77,2.94,1.16,6.06,1.16,9.35c0,5.16-0.58,9.15-1.73,12c-1.15,2.84-2.75,5.22-4.79,7.14
			c-2.04,1.92-4.24,3.2-6.58,3.83c-3.21,0.88-6.11,1.32-8.71,1.32h-21.71V478.87z M138.67,489.8v26.36h3.58
			c3.05,0,5.22-0.35,6.51-1.04c1.29-0.69,2.3-1.9,3.03-3.62c0.73-1.72,1.1-4.51,1.1-8.37c0-5.11-0.82-8.61-2.45-10.5
			c-1.64-1.88-4.35-2.83-8.13-2.83H138.67z"/>
		<path class="st2" d="M168.35,478.87h15.28l10.65,34.72l10.51-34.72h14.83l-17.56,48.25h-15.84L168.35,478.87z"/>
		<path class="st2" d="M224.36,478.87h39.17v10.3h-24.52v7.67h22.75v9.84h-22.75v9.51h25.23v10.93h-39.88V478.87z"/>
		<path class="st2" d="M272.31,527.12v-48.25h24.36c4.52,0,7.97,0.39,10.36,1.19c2.39,0.79,4.31,2.26,5.77,4.39
			c1.46,2.14,2.2,4.75,2.2,7.82c0,2.68-0.56,4.99-1.68,6.93c-1.12,1.94-2.66,3.52-4.62,4.72c-1.25,0.77-2.96,1.4-5.13,1.91
			c1.74,0.59,3.01,1.19,3.81,1.78c0.54,0.39,1.32,1.24,2.34,2.54c1.02,1.3,1.7,2.29,2.05,3l7.08,13.98h-16.52l-7.81-14.74
			c-0.99-1.91-1.87-3.15-2.64-3.72c-1.05-0.75-2.25-1.12-3.58-1.12h-1.29v19.58H272.31z M286.99,498.42h6.16
			c0.67,0,1.96-0.22,3.87-0.66c0.97-0.2,1.76-0.71,2.37-1.51c0.61-0.81,0.92-1.75,0.92-2.8c0-1.55-0.48-2.75-1.45-3.59
			c-0.97-0.83-2.79-1.25-5.45-1.25h-6.42V498.42z"/>
		<path class="st2" d="M319.6,478.87h44.43v11.91h-14.91v36.33h-14.62v-36.33h-14.9V478.87z"/>
		<path class="st2" d="M370.64,478.87h14.65v48.25h-14.65V478.87z"/>
		<path class="st2" d="M443.85,478.87h14.65v48.25h-14.65V478.87z"/>
		<path class="st2" d="M393.23,510.34l13.9-0.89c0.3,2.3,0.91,4.06,1.84,5.26c1.51,1.95,3.65,2.93,6.45,2.93
			c2.09,0,3.7-0.5,4.83-1.5c1.13-1,1.69-2.16,1.69-3.47c0-1.25-0.54-2.37-1.61-3.36c-1.07-0.99-3.57-1.92-7.49-2.8
			c-6.41-1.47-10.98-3.42-13.71-5.86c-2.75-2.44-4.13-5.54-4.13-9.31c0-2.48,0.71-4.82,2.11-7.03c1.41-2.2,3.53-3.94,6.36-5.2
			c2.83-1.26,6.7-1.89,11.63-1.89c6.04,0,10.65,1.15,13.83,3.44c3.17,2.29,5.06,5.94,5.66,10.94l-13.78,0.82
			c-0.36-2.17-1.14-3.75-2.31-4.74c-1.17-0.99-2.79-1.48-4.86-1.48c-1.7,0-2.98,0.37-3.84,1.1c-0.86,0.74-1.29,1.63-1.29,2.68
			c0,0.77,0.35,1.46,1.07,2.07c0.69,0.64,2.32,1.23,4.9,1.78c6.39,1.4,10.96,2.82,13.73,4.26c2.76,1.44,4.78,3.22,6.03,5.35
			c1.26,2.13,1.89,4.51,1.89,7.14c0,3.09-0.84,5.95-2.52,8.56c-1.68,2.61-4.02,4.59-7.03,5.94c-3.01,1.35-6.81,2.02-11.39,2.02
			c-8.04,0-13.61-1.58-16.71-4.74C395.39,519.22,393.63,515.21,393.23,510.34z"/>
		<path class="st2" d="M466.11,478.87h13.65l17.81,26.69v-26.69h13.78v48.25h-13.78l-17.71-26.49v26.49h-13.74V478.87z"/>
		<path class="st2" d="M544.84,508.83v-10.04h22.58v20.57c-4.32,3-8.15,5.05-11.47,6.14c-3.32,1.09-7.26,1.63-11.82,1.63
			c-5.61,0-10.19-0.98-13.73-2.93c-3.54-1.95-6.28-4.86-8.23-8.72c-1.95-3.86-2.92-8.3-2.92-13.3c0-5.26,1.06-9.84,3.2-13.74
			c2.13-3.89,5.25-6.85,9.35-8.87c3.2-1.56,7.52-2.34,12.94-2.34c5.23,0,9.14,0.48,11.73,1.45c2.59,0.96,4.74,2.46,6.45,4.49
			c1.71,2.03,2.99,4.6,3.86,7.72l-14.1,2.57c-0.58-1.82-1.56-3.21-2.95-4.18c-1.39-0.96-3.16-1.45-5.31-1.45
			c-3.21,0-5.76,1.13-7.66,3.4c-1.9,2.27-2.86,5.87-2.86,10.78c0,5.22,0.96,8.95,2.89,11.19c1.93,2.24,4.61,3.36,8.05,3.36
			c1.63,0,3.19-0.24,4.68-0.73c1.48-0.48,3.18-1.3,5.1-2.47v-4.54H544.84z"/>
	</g>
</g>
<path class="st3" d="M307.82,458.89L307.82,458.89c-14.7,0-26.61-12.04-26.61-26.89V211.08c0-14.85,11.91-26.89,26.61-26.89l0,0
	c14.7,0,26.61,12.04,26.61,26.89v220.91C334.43,446.85,322.52,458.89,307.82,458.89z"/>
<path class="st0" d="M307.82,438.35c-2.27,0-3.76-1.17-4.45-1.86c-0.69-0.7-1.84-2.2-1.84-4.5V211.08c0-3.5,2.82-6.36,6.29-6.36
	c3.47,0,6.29,2.85,6.29,6.36v220.91C314.11,435.5,311.29,438.35,307.82,438.35z"/>
<path class="st4" d="M557.16,392.01V380c-0.02-0.17-0.03-0.34-0.05-0.5V252.24c0-11.56-2.57-22.56-7.23-32.6
	c-0.03-0.08-0.05-0.19-0.08-0.28l-0.07-0.04c-8.91-18.98-25.28-34.46-45.84-43.48c-12.34-5.42-26.19-8.52-40.83-8.65h-0.01
	c-0.01,0-0.01,0-0.02,0h-0.03c-0.31-0.01-0.61-0.01-0.91-0.01c-3.28,0-6.51,0.14-9.71,0.43c-0.06,0.01-0.13,0.01-0.2,0.02
	c-11.34,1.05-22.08,3.89-31.87,8.21c-17.23,7.56-31.53,19.67-40.95,34.58c-6.59,10.41-10.78,22.17-11.94,34.71
	c-0.1,1.06-0.18,2.14-0.23,3.22c-0.01,0.1-0.01,0.19-0.01,0.28c0,14.44,11.92,26.15,26.61,26.15c13.76,0,25.06-10.24,26.48-23.38
	v-0.06c1.75-15.68,12.46-28.71,26.97-34.06c0.05-0.02,0.09-0.03,0.13-0.05c4.59-1.55,9.56-2.39,14.74-2.4
	c3.92,0.01,7.72,0.49,11.3,1.39c0.01,0,0.02,0,0.04,0.01c17.09,4.76,29.73,19.91,30.43,38.05v0.58
	c-1.05,25.51-24.02,30.18-61.52,37.45c-1.34,0.26-2.7,0.53-4.08,0.8c-9.29,1.81-16,3.92-20.4,5.43c-0.25,0.08-0.5,0.17-0.75,0.25
	c-0.39,0.14-0.79,0.27-1.18,0.42c-28.13,10.12-49.2,34.62-53.97,64.43c-0.6,4.61-0.91,9.42-0.91,14.42c0,1.59,0.04,3.18,0.11,4.75
	c0.01,0.03,0.01,0.05,0.01,0.08c3.29,42.41,39.29,75.85,83.28,76.01h0.3c2.2-0.04,4.34-0.11,6.43-0.24c0.04,0,0.07-0.01,0.11-0.01
	c27.84-1.58,45.93-13.58,55.39-22.04c-0.21-1.54-0.31-3.11-0.31-4.7c0-19.13,15.4-34.69,34.32-34.69c6.6,0,12.79,1.89,18.02,5.18
	C557.8,398.37,557.35,394.85,557.16,392.01z M503.9,330.87c-0.36,21.87-2.74,37.83-7.17,47.81c-4.19,9.84-10.74,17.81-19.65,24.05
	c-7.63,5.33-15.88,7.7-24.75,8.26c-0.16,0.02-0.32,0.04-0.49,0.04c-0.65,0.04-1.29,0.06-1.94,0.08c-0.18,0.01-0.35,0.01-0.53,0.01
	c-8.41,0-16.17-2.79-22.34-7.5c-8.63-6.56-14.19-16.83-14.19-28.38c0-16.47,11.3-30.34,26.7-34.54c0.03-0.02,0.06-0.03,0.09-0.03
	c0.2-0.07,0.39-0.14,0.6-0.19c17.5-5.3,46.53-10.05,63.18-22.81c0.17-0.13,0.33-0.25,0.49-0.38V330.87z"/>
<ellipse class="st5" cx="307.82" cy="122.91" rx="46.27" ry="46.76"/>
<g>
	<g>
		<path class="st0" d="M351.74,124.08c0.1-1.56-0.82-2.81-1.19-4.2c-0.29-1.07-0.38-2.19-0.59-3.28c0.08-0.03,0.14-0.06,0.21-0.07
			c0.42,0.63,0.83,1.27,1.24,1.87c0-0.73,0.07-1.52-0.01-2.32c-0.15-1.36-0.47-2.68-1.23-3.86c-0.38-0.55-0.64-1.23-0.75-1.88
			c-0.13-0.73,0.04-1.49-0.12-2.21c-0.28-1.3-0.59-2.59-1.06-3.82c-1.18-2.97-3.04-5.55-4.92-8.13c-0.04-0.06-0.13-0.12-0.21-0.17
			c-0.23-0.17-0.49-0.32-0.66-0.53c-0.4-0.61-0.64-1.35-1.13-1.91c-4.53-5.23-9.95-9.28-16.3-11.91c-1.84-0.79-3.79-1.4-5.71-2.11
			c-0.03,0.08-0.08,0.16-0.11,0.24c0.29,0.21,0.55,0.47,0.86,0.63c0.55,0.31,1.17,0.56,1.76,0.83c-0.01,0.05-0.03,0.09-0.05,0.14
			c-0.44-0.09-0.85-0.15-1.29-0.23c-0.04,0.05-0.04,0.11-0.05,0.17c0.18,0.11,0.38,0.2,0.65,0.34c-0.2,0.09-0.39,0.12-0.41,0.18
			c-0.22,0.63-0.5,0.25-0.83,0.15c-0.47-0.17-0.93-0.31-1.42-0.38c-0.26-0.03-0.57,0.17-0.96,0.28c0.07,0.05,0.15,0.08,0.23,0.1
			c0.37,0.15,0.73,0.24,0.56,0.84c-0.14,0.43,0.2,0.72,0.65,0.82c0.04,0.02,0.05,0.09,0.09,0.14c-0.09,0.15-0.21,0.29-0.37,0.5
			c0.45,0.14,0.8,0.28,1.33,0.47c-0.41,0-0.64-0.01-0.96-0.01c0.15,0.2,0.24,0.39,0.39,0.6c-0.23-0.11-0.43-0.2-0.72-0.34
			c0.09,0.21,0.13,0.33,0.16,0.44c-0.16-0.1-0.31-0.2-0.46-0.25c-0.29-0.12-0.54-0.2-0.81-0.28c-0.03,0.08-0.05,0.15-0.1,0.22
			c0.29,0.35,0.54,0.74,0.88,1.02c0.33,0.3,0.76,0.48,1.15,0.7c-0.47,0-0.93-0.1-1.4-0.14c-0.43-0.04-0.9-0.01-1.26-0.01
			c0.23,0.14,0.55,0.3,0.87,0.48c-0.03,0.08-0.04,0.16-0.06,0.24c-0.63-0.55-0.99,0.73-1.67,0.05c-0.37,0.38-0.73,0.79-1.2,1.26
			c-0.03,0-0.09,0-0.16-0.03c-0.11-0.03-0.21-0.1-0.31-0.15c0.21-0.51,0.13-0.59-0.58-0.53c0.19,0.35,0.38,0.71,0.58,1.08
			c-0.87-0.05-1.23,0.3-0.97,1.01c-0.37-0.07-0.72-0.13-1.04-0.2c-0.03,0.05-0.04,0.09-0.05,0.14c0.18,0.14,0.35,0.26,0.57,0.45
			c-1.17,0.24-1.15-0.97-1.95-1.4c0.65,0.1,1.17,0.25,1.67,0.25c0.23,0,0.47-0.24,0.73-0.39c-0.19-0.2-0.31-0.52-0.53-0.57
			c-0.99-0.35-1.99-0.62-2.86-0.87c-0.15-0.13-0.24-0.32-0.34-0.32c-0.43-0.05-0.97-0.22-1.26-0.01c-0.72,0.42-1.68,0.18-2.28,0.98
			c-0.43,0.58-1.06,1.05-1.63,1.52c-0.44,0.33-0.92,0.63-1.41,0.89c-0.91,0.43-1.96,0.7-2.02,1.98c0,0.32-0.29,0.76,0.14,0.92
			c0.3,0.13,0.69,0.01,1-0.07c0.29-0.07,0.55-0.25,0.8-0.39c0.15,0.59,0.3,1.11,0.43,1.64c0.01,0.11-0.11,0.28-0.21,0.34
			c-0.18,0.1-0.38,0.14-0.6,0.24c0.06,0.2,0.13,0.38,0.18,0.62c0.2-0.24,0.34-0.43,0.5-0.62c0.03,0.07,0.03,0.12,0.05,0.17
			c0.21-0.04,0.44-0.05,0.65-0.11c0.16-0.05,0.33-0.15,0.47-0.25c0.2-0.16,0.47-0.28,0.57-0.51c0.21-0.47,0.17-1.05,0.86-1.2
			c0.14-0.04,0.24-0.32,0.37-0.49c-0.26-0.33-0.87-0.52-0.47-1.05c0.26-0.34,0.57-0.62,0.86-0.91c0.02-0.03,0.04-0.03,0.05-0.05
			c0.21-0.23,0.48-0.44,0.63-0.73c0.21-0.39,0.51-0.51,0.91-0.44c0.12,0.03,0.29,0.11,0.34,0.21c0.03,0.07-0.08,0.24-0.16,0.35
			c-0.31,0.27-0.58,0.54-0.92,0.78c-0.59,0.42-0.04,0.98-0.24,1.45c0.36,0.13,0.71,0.33,1.08,0.38c0.21,0.04,0.47-0.15,0.71-0.16
			c0.43-0.03,0.86,0.02,1.29,0.02v0.29c-0.59,0.07-1.23,0.11-1.83,0.2c-0.56,0.09-0.59,0.24-0.28,0.71
			c0.11,0.16,0.04,0.45,0.05,0.66c-0.17-0.03-0.37-0.02-0.46-0.11c-0.39-0.36-0.64-0.16-0.74,0.19c-0.12,0.41-0.13,0.81-0.2,1.18
			c-0.46,0.21-0.94,0.57-1.51,0.17c-0.1-0.05-0.34,0.07-0.5,0.13c-0.26,0.07-0.51,0.24-0.77,0.23c-0.23,0.03-0.47-0.11-0.71-0.19
			c-0.21-0.06-0.44,0.08-0.68,0.06c-0.23-0.02-0.52-0.16-0.7-0.34c-0.06-0.08,0-0.38,0.08-0.56c0.18-0.38,0.39-0.78,0.65-1.28
			c-1.28,0.41-1.28,0.41-1.28,1.48c0,0.14-0.03,0.28-0.05,0.43c-0.04,0.34-0.17,0.45-0.55,0.44c-0.46,0-1,0.05-1.34,0.3
			c-0.6,0.45-1.12,1.03-1.95,1.13c-0.03-0.01-0.05,0.05-0.08,0.07c-0.47,0.66-1.05,0.94-1.84,0.52c-0.05,0.21-0.07,0.38-0.12,0.66
			c-0.31-0.11-0.6-0.24-0.89-0.26c-0.31-0.05-0.68-0.05-0.6,0.48c0.73,0.43,1.19,1.2,0.93,1.8c-0.12,0.38-0.34,0.74-0.52,1.1
			c-0.16,0.34-0.42,0.39-0.76,0.3c-0.75-0.23-1.55-0.43-2.32-0.64c-0.44-0.11-0.82,0.22-0.98,0.65c-0.29,0.72-0.67,1.39-1.02,2.07
			c-0.06,0.16-0.25,0.32-0.25,0.48c-0.04,0.42-0.02,0.82-0.02,1.31c0.51,0.01,1.25,0.04,1.19,0.86c0.64-0.03,1.22-0.02,1.78-0.07
			c0.25-0.02,0.48-0.11,0.69-0.24c0.48-0.27,0.91-0.58,1.31-0.87c0-0.24-0.08-0.52,0.02-0.62c0.41-0.39,0.84-0.78,1.32-1.02
			c0.49-0.25,1.11-0.24,1.15-1.05c0.05-0.42,0.49-0.6,0.89-0.34c0.74,0.51,1.35,0.06,1.97-0.22c0.65-0.32,0.9-0.13,1.21,0.56
			c0.26,0.58,0.75,1.09,1.22,1.57c0.42,0.43,0.98,0.71,1.38,1.14c0.47,0.48,0.19,1.11-0.48,1.19c-0.35,0.04-0.72-0.04-1.08-0.01
			c-0.16,0-0.33,0.07-0.67,0.18c0.52,0.32,0.91,0.53,1.27,0.79c0.31,0.21,0.47,0.14,0.48-0.28c0.02-0.18,0.19-0.53,0.22-0.5
			c0.68,0.13,0.63-0.66,0.92-0.72c0.01-0.39,0.01-0.63,0.01-0.9c0.31,0.05,0.62,0.14,0.95,0.16c-0.47-0.53-0.99-1.04-1.59-1.39
			c-0.39-0.22-0.71-0.39-0.81-0.85c-0.05-0.2-0.19-0.44-0.34-0.54c-0.39-0.28-0.44-0.62-0.26-0.98c0.13-0.19,0.38-0.3,0.65-0.53
			c0.04,0.34,0.06,0.5,0.06,0.67c0.06-0.02,0.13-0.06,0.18-0.09c0.13,0.11,0.29,0.22,0.41,0.35c0.33,0.33,0.62,0.72,0.94,1.03
			c0.39,0.32,0.83,0.6,1.24,0.92c0.09,0.09,0.22,0.3,0.2,0.41c-0.27,0.73,0.18,1.24,0.59,1.76c0.17,0.21,0.39,0.49,0.4,0.75
			c0.03,0.69,0.31,1.03,1,1.01c-0.09-0.55,0.16-0.91,0.63-0.82c0.04-0.17,0.06-0.36,0.11-0.52c-0.64-0.36-0.86-0.7-0.86-1.28
			c0.21,0.01,0.51,0.1,0.61,0.01c0.59-0.55,0.88-0.6,1.56-0.12c-0.05,0.21-0.1,0.39-0.14,0.58c0.53,0.32,0.59,0.62,0.21,1.01
			c0.14,0.07,0.38,0.15,0.39,0.25c0.06,0.96,1.04,0.74,1.5,1.2c0.11,0.09,0.56,0.03,0.63-0.09c0.34-0.71,0.71-0.13,1.09-0.02
			c0.29,0.05,0.63,0.15,0.89,0.09c0.48-0.13,0.94-0.39,1.47-0.6c-0.04,0.37-0.11,0.63-0.04,0.82c0.23,0.73-0.03,1.38-0.23,2.05
			c-0.03,0.2-0.08,0.4-0.12,0.61c-0.21,0.85-0.96,1.35-1.71,0.91c-0.59-0.32-0.99-0.12-1.48,0.07c-0.26,0.1-0.58,0.21-0.83,0.13
			c-1.08-0.23-2.11-0.52-3.16-0.82c-0.16-0.05-0.34-0.2-0.5-0.33c-0.47-0.4-0.98-0.32-1.48-0.09c-0.39,0.2-0.63,0.47-0.53,0.99
			c0.05,0.2-0.14,0.53-0.32,0.65c-0.15,0.1-0.46,0.02-0.67-0.08c-0.32-0.12-0.62-0.39-0.99-0.5c-0.48-0.14-1-0.19-1.09-0.88
			c0-0.07-0.22-0.14-0.34-0.21c-0.77-0.5-1.77-0.34-2.5-1.05c-0.29-0.32-0.34-0.41-0.03-0.69c0.21-0.18,0.47-0.64,0.42-0.73
			c-0.39-0.43-0.05-0.7,0.16-0.92c-0.17-0.13-0.31-0.21-0.47-0.28c-0.2-0.06-0.36-0.12-0.57-0.11c-0.78,0.04-1.61,0.26-2.37,0.09
			c-1.39-0.37-2.66-0.09-3.91,0.39c-0.76,0.3-1.98,0.05-2.46-0.64c-0.05,0.02-0.12,0.03-0.17,0.05c-0.07,0.05-0.12,0.12-0.17,0.18
			c-0.4,0.67-0.92,1.08-1.69,1.3c-0.73,0.24-1.25,0.91-1.37,1.63c-0.2,1.08-0.96,1.55-1.74,1.68c-0.97,0.19-1.39,0.95-1.97,1.48
			c-0.77,0.71-1.34,1.62-1.97,2.46c-0.26,0.31-0.39,0.68-0.21,1.1c0.08,0.17,0.11,0.39,0.08,0.59c-0.03,0.32-0.08,0.63-0.15,0.95
			c-0.09,0.42-0.14,0.85-0.29,1.26c-0.25,0.53-0.56,1.02-0.85,1.55c-0.03,0.05-0.04,0.12-0.04,0.19c0.01,0.53,0.03,1.05,0.06,1.6
			c0,0.14,0.03,0.28,0.1,0.4c0.23,0.43,0.49,0.82,0.73,1.23c0.29,0.54,0.73,1.08,0.8,1.66c0.13,0.82,0.42,1.39,0.99,1.98
			c0.65,0.62,1.22,1.37,1.82,2.02c0.31,0.34,0.65,0.43,1.12,0.28c1-0.32,1.95-0.2,2.92,0.28c0.18,0.11,0.47,0.11,0.66,0.07
			c1.15-0.22,2.22-0.7,3.41-0.6c0.89,0.09,1.34,0.38,1.55,1.24c0.16,0.5,0.45,0.69,0.97,0.62c0.68-0.07,1.33-0.31,1.87,0.43
			c0.29,0.33,0.48,0.59,0.42,0.99c-0.08,0.62-0.22,1.29-0.38,1.92c-0.05,0.26-0.21,0.5-0.39,0.84c0.18,0.26,0.3,0.72,0.59,1.03
			c0.92,1.03,1.95,2,2.34,3.43c0.13,0.43,0.57,0.92,0.48,1.23c-0.22,0.62,0.17,0.95,0.29,1.42c0.09,0.38,0.16,1.04-0.03,1.19
			c-0.84,0.59-0.85,1.51-1.07,2.31c-0.15,0.61-0.13,1.3,0.43,1.91c0.65,0.69,1.13,1.5,1.65,2.25c0.05,0.07,0.08,0.19,0.12,0.3
			c0.21,0.76,0.4,1.53,0.66,2.29c0.1,0.3,0.31,0.56,0.55,0.75c0.93,0.87,1.3,1.43,1.66,2.67c0,0.05,0.05,0.05,0.07,0.11
			c0.32,0.53,0.98,0.74,1.56,0.67c0.74-0.13,1.48-0.09,2.18-0.22c0.94-0.15,1.94-0.19,2.72-0.6c1.11-0.62,2.06-1.49,3-2.34
			c0.29-0.24,0.56-0.76,0.48-1.1c-0.08-0.5,0.18-0.56,0.47-0.71c0.24-0.12,0.53-0.18,0.79-0.3c0.41-0.14,0.81-0.3,0.73-0.83
			c-0.06-0.56-0.15-1.09-0.22-1.63c-0.03-0.18-0.05-0.47,0.05-0.53c0.99-0.68,2.03-1.35,3.05-1.98c0.68-0.41,1.34-0.84,1.44-1.68
			c0.09-0.82,0.03-1.65,0.02-2.46c0-0.12-0.01-0.29-0.09-0.34c-0.68-0.43-0.68-1.14-0.64-1.79c0.04-0.37,0.05-0.68-0.27-0.95
			c-0.08-0.08-0.05-0.43,0-0.58c0.27-0.57,0.55-1.11,0.83-1.66c0.11-0.21,0.22-0.44,0.37-0.61c0.34-0.42,0.71-0.79,1.06-1.18
			c0.74-0.8,1.42-1.68,2.24-2.38c0.96-0.82,1.81-1.7,2.35-2.83c0.47-1,0.87-2.01,1.31-3c0.34-0.81,0.39-1.63,0.3-2.52
			c-0.16,0.04-0.26,0.06-0.37,0.1c-1,0.42-1.98,0.84-2.95,1.26c-0.89,0.36-1.75,0.56-2.33-0.52c0.26-0.34,0.29-0.54-0.03-0.8
			c-0.74-0.55-1.47-1.13-2.23-1.62c-0.47-0.3-0.64-0.67-0.82-1.17c-0.16-0.4-0.37-0.92-0.71-1.15c-0.6-0.43-0.82-0.96-0.85-1.63
			c-0.07-0.77-0.34-1.38-1-1.83c-0.21-0.14-0.29-0.46-0.4-0.72c-0.06-0.12-0.04-0.28-0.09-0.4c-0.71-1.18-1.42-2.32-2.12-3.5
			c-0.12-0.18-0.17-0.43-0.31-0.82c0.48,0.63,0.87,1.13,1.34,1.76c0.15-0.48,0.21-0.76,0.29-1.06c0.05,0.24,0.04,0.47,0.13,0.63
			c0.63,0.83,1.27,1.67,1.9,2.52c0.11,0.14,0.21,0.26,0.35,0.35c0.65,0.35,0.97,0.9,1.06,1.64c0.09,0.62,0.32,1.12,0.95,1.43
			c0.26,0.12,0.46,0.4,0.64,0.65c0.34,0.41,0.65,0.83,0.93,1.29c0.2,0.29,0.43,0.58,0.51,0.92c0.22,0.74,0.35,1.5,0.53,2.27
			c0.13,0.4,0.39,0.58,0.82,0.4c0.74-0.36,1.51-0.76,2.24-1.18c0.77-0.43,1.51-0.91,2.28-1.39c0.21-0.14,0.58-0.34,0.58-0.55
			c0.03-0.5,0.31-0.73,0.71-0.81c0.81-0.21,1.12-0.97,1.74-1.44c0.29-0.21,0.4-0.67,0.65-1.06c0.02-0.25,0-0.62,0.1-0.94
			c0.19-0.47,0.45-0.91,0.64-1.38c0.06-0.12,0-0.38-0.06-0.43c-0.45-0.32-0.77-0.74-1.41-0.81c-0.34-0.03-0.68-0.49-0.95-0.82
			c-0.16-0.2-0.17-0.5-0.25-0.78c-0.23,0.43-0.44,0.82-0.71,1.22c-0.17,0.24-0.38,0.5-0.63,0.64c-0.27,0.15-0.62,0.24-0.93,0.22
			c-0.16-0.04-0.33-0.33-0.42-0.53c-0.13-0.31-0.18-0.63-0.26-0.95c-0.06,0.01-0.13,0.03-0.19,0.03c-0.04,0.22-0.1,0.44-0.21,0.8
			c-0.17-0.33-0.27-0.55-0.4-0.78c-0.11-0.17-0.15-0.4-0.29-0.53c-0.55-0.59-1.1-1.13-1.64-1.69c0.73-1.09,1.15-1.13,1.77-0.13
			c0.54,0.87,1.42,1.16,2.24,1.49c0.35,0.16,0.94-0.01,1.31-0.2c0.55-0.32,0.49-0.37,0.83,0.22c0.07,0.17,0.31,0.4,0.47,0.4
			c1.07,0.01,2.17,0.06,3.21-0.36c0.54-0.22,1.09-0.37,1.62-0.55c0.73,0.68,1.33,1.54,2.57,1.42c-0.22,0.24-0.39,0.41-0.56,0.6
			c0.24,0.23,0.48,0.43,0.72,0.64c0.31,0.32,0.62,0.24,0.81-0.13c0.13-0.28,0.13-0.63,0.18-0.95c0.9,3.49,3.24,9.98,4.47,9.74
			c0.57-0.14,0.58-1.69,0.59-2.5c0.02-1.07-0.09-2.1-0.24-3.17c-0.03-0.25-0.13-0.55,0-0.72c0.68-1.02,0.76-2.21,1.01-3.34
			c0.05-0.24,0.09-0.44,0.12-0.67c0.07-0.38,0.08-0.78,0.16-1.14c0.05-0.28,0.05-0.63,0.23-0.76c0.42-0.38,0.69-0.76,0.6-1.39
			c0.55,0.63,1.09,1.15,1.49,1.8c0.41,0.66,0.59,1.43,0.9,2.15c0.04,0.1,0.12,0.18,0.27,0.43c0.11-0.53,0.19-0.91,0.28-1.27
			c0.06-0.01,0.12-0.04,0.2-0.04c0.39,1.36,0.81,2.71,1.17,4.07c0.15,0.6,0.1,1.26,0.26,1.84c0.23,0.89,0.52,1.74,0.77,2.62
			c0.14,0.46,0.29,0.92,0.43,1.38c0.06-0.03,0.14-0.05,0.22-0.05C351.74,124.45,351.71,124.26,351.74,124.08z M321.06,87.78
			c-0.14-0.58-0.31-1.01-0.83-1.3c-0.15-0.07-0.3-0.15-0.43-0.25c-0.17-0.11-0.33-0.24-0.49-0.37c-0.14-0.11-0.28-0.23-0.42-0.34
			c0.1,0.04,0.21,0.05,0.3,0.08c0.1,0.04,0.2,0.07,0.26,0.14c0.39,0.32,0.73,0.74,1.15,0.45c0.11,0.19,0.15,0.34,0.23,0.45
			c0.14,0.22,0.38,0.37,0.47,0.6C321.35,87.39,321.21,87.59,321.06,87.78z"/>
		<path class="st0" d="M264.46,115.38c-0.01,0.2-0.04,0.41-0.04,0.62c-0.03,1.11-0.08,2.24-0.06,3.35c0.02,0.5,0.26,1.02,0.36,1.52
			c0.18,0.78,0.41,1.55,0.46,2.31c0.08,1.14,0,2.24-0.01,3.34c0.14,0.09,0.34,0.2,0.42,0.36c0.39,0.89,0.73,1.83,1.19,2.7
			c0.16,0.36,0.57,0.58,0.85,0.9c0.4,0.53,0.79,1.06,1.18,1.6c0.33,0.42,0.64,0.86,0.94,1.29c0.05,0.05,0.14,0.11,0.17,0.19
			c0.34,1.2,0.74,2.38,0.08,3.63c-0.34,0.67-0.55,1.43-0.33,2.28c0.38,1.47,0.63,2.99,0.94,4.48c0.03,0.12-0.03,0.25-0.05,0.36
			c-0.26,0-0.5,0-0.73-0.01c0.03,0.26-0.03,0.55,0.08,0.81c0.25,0.56,0.55,1.09,0.75,1.64c-6.01-9.66-8.07-20.12-6.41-31.34
			C264.34,115.39,264.39,115.39,264.46,115.38z"/>
		<path class="st0" d="M301.84,80.76c0.48,0.47,1.15,0.31,1.72,0.48c0.18,0.05,0.33,0.21,0.48,0.35c-0.17,0.09-0.33,0.21-0.59,0.36
			c0.22,0.08,0.47,0.21,0.77,0.37c-0.99,0.36-2.22,0.22-2.95,1.27c-0.12,0-0.29-0.04-0.47-0.06c-0.03,0.03-0.07,0.05-0.11,0.06
			c-0.31,0.3-0.6,0.64-0.97,0.85c-0.38,0.23-0.84,0.32-1.27,0.5c-0.29,0.12-0.4,0.33-0.57,0.51c-0.14,0.16-0.38,0.27-0.54,0.41
			c-0.04-0.04-0.08-0.07-0.1-0.12c0.01-0.13,0.04-0.29,0.09-0.5c-0.22,0.14-0.41,0.25-0.59,0.37c0.08,0.1,0.13,0.21,0.31,0.45
			c-0.78,0.05-1.5,0.08-2.18,0.14c-0.47,0.04-0.92,0.1-1.41,0.15c-0.56,0.08-1.12,0.1-1.66,0.19c-0.47,0.11-0.91,0.27-1.33,0.48
			c-1.01,0.47-2.01,0.96-3,1.47c-0.08-1.07,0.59-1.62,1.26-2.14c1.03-0.81,2.01-1.7,3.32-2.02c0.31-0.06,0.63-0.11,0.91-0.15
			c0-0.17-0.04-0.41-0.02-0.41c0.29-0.09,0.57-0.15,0.86-0.19c0.11-0.04,0.26,0.02,0.31-0.04c0.42-0.87,1.44-0.7,2.11-1.18
			c0.25-0.18,0.6-0.25,0.89-0.4c0.13-0.08,0.34-0.2,0.34-0.31c0.08-0.61,0.67-0.39,0.91-0.59c0.76-0.64,1.59,0.13,2.35-0.31
			c0.27-0.16,0.73,0.01,1.13,0.04L301.84,80.76z"/>
		<path class="st0" d="M279.67,89.85c-0.34,0.13-0.63,0.23-0.91,0.34c0.39,0.27,0.34,0.56-0.08,0.82c-0.52,0.3-1,0.61-1.16,1.26
			c-0.04,0.16-0.25,0.29-0.38,0.42c0.01,0.03,0.05,0.08,0.08,0.11c0.13-0.05,0.25-0.1,0.37-0.18c0.05,0.04,0.05,0.08,0.09,0.15
			c-0.25,0.12-0.47,0.29-0.72,0.36c-0.29,0.08-0.59,0.06-1.1,0.11c0.44-0.31,0.72-0.51,1.07-0.76c-0.57-0.19-0.98,0.05-1.38,0.38
			c-0.31,0.29-0.68,0.55-1.02,0.82c-0.05-0.05-0.08-0.09-0.13-0.17c0.51-0.56,1.01-1.18,1.57-1.7c1.59-1.46,3.19-2.99,4.86-4.38
			c0.76-0.61,1.77-0.98,2.66-1.44c0.42-0.22,0.82-0.44,1.25-0.67c0.99-0.55,1.98-1.09,3.03-1.57c-0.69,1.12-1.95,1.54-2.83,2.5
			c0.26-0.08,0.54-0.14,0.94-0.23c-0.74,0.6-1.42,1.1-2.05,1.65c-0.39,0.34-0.68,0.73-1.02,1.13c-0.52,0.57-0.97,1.26-1.57,1.73
			c-0.33,0.25-0.9,0.15-1.44,0.24C279.77,90.48,279.72,90.22,279.67,89.85z"/>
		<path class="st0" d="M326.48,144.31c0.65,0.64,0.48,1.43,0.52,2.14c0,1.24-0.51,1.81-0.77,2.36c-0.67,1.34-1.54,2.22-2.28,3.53
			c-0.27,0.53-1.34,0.87-1.87,0.69c-0.13-0.05-0.27-0.12-0.34-0.22c-0.29-0.4-0.18-1.75,0.15-2.11c0.52-0.52,0.81-1.07,0.56-1.87
			c-0.16-0.58,0.34-1.28,0.88-1.55c0.61-0.3,1.29-0.6,1.8-1.04c0.46-0.41,0.72-1.01,1.06-1.52
			C326.28,144.59,326.37,144.47,326.48,144.31z"/>
		<path class="st0" d="M289.55,84.13c0.22-0.13,0.43-0.26,0.64-0.42c-0.01-0.03-0.03-0.05-0.05-0.09c-0.88,0.47-1.76,0.92-2.65,1.39
			c-0.04-0.08-0.09-0.13-0.14-0.21c0.31-0.26,0.63-0.52,0.94-0.78c0.34-0.3,0.63-0.61,0.98-0.86c0.14-0.12,0.41-0.14,0.6-0.12
			c0.3,0.04,1.38-0.32,1.58-0.57c0.08-0.12,0.26-0.17,0.42-0.22c0.52-0.21,1.04-0.39,1.57-0.59c-0.03-0.07-0.07-0.13-0.09-0.21
			c-0.46,0.14-0.93,0.35-1.4,0.38c-0.87,0.07-1.67,0.36-2.41,0.9c-0.01-0.08-0.04-0.13-0.09-0.19c0.26-0.16,0.5-0.31,0.78-0.47
			c-0.14-0.03-0.26-0.06-0.5-0.14c1.55-0.59,2.97-1.14,4.45-1.73c-0.04,0.34-0.22,0.49-1.23,1.1c1.1-0.31,2.23-0.65,3.33-1
			c-0.26,0.54-0.5,0.84-1.15,0.86c-0.57,0.05-1.1,0.68-1.63,1.04c-0.21,0.14-0.4,0.33-0.61,0.36c-0.78,0.15-1.33,0.62-1.91,1.04
			c-0.42,0.29-0.9,0.49-1.35,0.74C289.59,84.27,289.57,84.19,289.55,84.13z"/>
		<path class="st0" d="M294.21,97.67c0.37-0.17,0.73-0.34,1.11-0.53c-0.14-0.09-0.35-0.23-0.51-0.33c0.23-0.25,0.47-0.5,0.73-0.8
			c0.21-0.12,0.55-0.22,0.65-0.43c0.05-0.17-0.18-0.48-0.34-0.68c0.05-1.02,0.02-2.18,1.65-2.08c-0.18,0.18-0.34,0.3-0.48,0.46
			c0.24,0.07,0.43,0.14,0.72,0.2c-0.29,0.29-0.52,0.5-0.72,0.68c0.14,0.75,0.3,1.45,0.45,2.23c0.49,0.25,0.52,0.39,0,0.76
			c-0.08,0.08-0.08,0.25-0.18,0.33c-0.13,0.13-0.29,0.29-0.42,0.29c-0.89,0.02-1.75-0.01-2.63-0.02
			C294.23,97.72,294.21,97.69,294.21,97.67z"/>
		<path class="st0" d="M349.73,123.66c0.35-0.13,0.52-0.21,0.57-0.23c2,2,1.63,4.43,1.47,6.92
			C351.03,128.09,351.29,125.61,349.73,123.66z"/>
		<path class="st0" d="M301.87,80.77c-0.67-0.08-1.36-0.22-2.05-0.27c-0.55-0.02-1.15,0.04-1.8,0.06c0.37-0.27,0.37-1.01,1.06-0.51
			c0.14,0.11,0.46-0.05,0.69-0.07c0.67-0.13,1.36-0.32,2.01-0.33c0.34-0.01,0.67,0.3,1.02,0.46c0,0.09,0.03,0.16,0.03,0.25
			c-0.33,0.14-0.65,0.25-0.98,0.39L301.87,80.77z"/>
		<path class="st0" d="M293.72,95.01c0.2-0.12,0.41-0.25,0.62-0.3c0.3-0.08,0.77-0.23,0.94-0.07c0.3,0.27,0.06,0.55-0.27,0.68
			c-0.05,0.01-0.1,0.08-0.12,0.14c-0.16,1.01-1.03,0.95-1.72,1.12c-0.13,0.02-0.29-0.1-0.42-0.15c0.06-0.13,0.09-0.34,0.2-0.39
			C293.51,95.89,293.29,95.25,293.72,95.01z"/>
		<path class="st0" d="M280.82,90.92c-0.17,0.1-0.37,0.21-0.55,0.35c-0.29,0.2-0.57,0.38-0.49,0.85c0.01,0.13-0.22,0.3-0.34,0.45
			c-0.29,0.37-0.59,0.73-0.86,1.06c-0.04-0.49-0.06-0.94-0.09-1.49c0.67-0.4,1.44-0.88,2.22-1.35
			C280.74,90.81,280.78,90.86,280.82,90.92z"/>
		<path class="st0" d="M344.56,126.38c-0.67-0.06-0.55-2.61-0.23-2.73C344.92,123.64,345.63,125.77,344.56,126.38z"/>
		<path class="st0" d="M318.82,85.51c0.21,0.07,0.47,0.1,0.63,0.23c0.39,0.32,0.73,0.74,1.15,0.46c0.1,0.19,0.16,0.34,0.23,0.45
			c0.14,0.21,0.38,0.37,0.47,0.6c0.05,0.15-0.09,0.36-0.24,0.54c-0.14-0.58-0.31-1.02-0.83-1.3c-0.51-0.24-0.94-0.64-1.38-0.99
			L318.82,85.51z"/>
	</g>
</g>
<ellipse class="st6" cx="540.72" cy="431.91" rx="26.7" ry="26.98"/>
<ellipse class="st7" cx="540.48" cy="431.56" rx="33.74" ry="34.1"/>
<g>
	<path class="st0" d="M591.67,172.45c10.18,0,18.43,8.48,18.43,18.93c0,10.46-8.25,18.93-18.43,18.93
		c-10.18,0-18.43-8.48-18.43-18.93C573.24,180.93,581.49,172.45,591.67,172.45L591.67,172.45z M591.67,167.18
		c13.23,0,23.95,10.84,23.95,24.21c0,13.37-10.72,24.21-23.95,24.21c-13.23,0-23.95-10.84-23.95-24.21
		C567.71,178.02,578.44,167.18,591.67,167.18L591.67,167.18z"/>
	<path class="st4" d="M582.6,203.26v-24.45h9.82c2.47,0,4.26,0.22,5.38,0.66c1.12,0.44,2.02,1.22,2.69,2.34
		c0.67,1.13,1.01,2.41,1.01,3.85c0,1.84-0.51,3.35-1.52,4.55c-1.02,1.2-2.53,1.95-4.55,2.26c1.01,0.62,1.83,1.3,2.48,2.05
		c0.66,0.74,1.54,2.07,2.65,3.97l2.82,4.77h-5.57l-3.34-5.34c-1.2-1.9-2.02-3.09-2.47-3.59c-0.44-0.49-0.91-0.83-1.4-1.01
		c-0.5-0.18-1.29-0.27-2.36-0.27h-0.95v10.21H582.6z M587.28,189.15h3.45c2.23,0,3.63-0.1,4.19-0.3c0.55-0.2,0.99-0.55,1.3-1.04
		c0.32-0.49,0.47-1.1,0.47-1.84c0-0.83-0.21-1.48-0.62-2c-0.41-0.51-1-0.83-1.75-0.96c-0.38-0.06-1.51-0.09-3.4-0.09h-3.64V189.15z"
		/>
</g>
</svg>
